ISO-10303-21;
HEADER;
/* Generated by software containing ST-Developer
 * from STEP Tools, Inc. (www.steptools.com) 
 */

FILE_DESCRIPTION(
/* description */ (''),
/* implementation_level */ '2;1');

FILE_NAME(
/* name */ 'fdm_innenkontur_untersuchungsobjekt_kreis_10_15_20mm.step',

/* time_stamp */ '2026-07-27T16:29:19+02:00',
/* author */ (''),
/* organization */ (''),
/* preprocessor_version */ 'ST-DEVELOPER v20.1',
/* originating_system */ 'Autodesk Translation Framework v15.8.0.0',
/* authorisation */ '');

FILE_SCHEMA (('AUTOMOTIVE_DESIGN { 1 0 10303 214 3 1 1 }'));
ENDSEC;

DATA;
#10=MECHANICAL_DESIGN_GEOMETRIC_PRESENTATION_REPRESENTATION('',(#13),#1307);
#11=SHAPE_REPRESENTATION_RELATIONSHIP('SRR','None',#1314,#12);
#12=ADVANCED_BREP_SHAPE_REPRESENTATION('',(#14),#1306);
#13=STYLED_ITEM('',(#1323),#14);
#14=MANIFOLD_SOLID_BREP('K\X\F6rper1',#794);
#15=FACE_BOUND('',#129,.T.);
#16=FACE_BOUND('',#130,.T.);
#17=FACE_BOUND('',#131,.T.);
#18=FACE_BOUND('',#132,.T.);
#19=FACE_BOUND('',#133,.T.);
#20=FACE_BOUND('',#144,.T.);
#21=FACE_BOUND('',#145,.T.);
#22=FACE_BOUND('',#146,.T.);
#23=CYLINDRICAL_SURFACE('',#843,12.);
#24=CYLINDRICAL_SURFACE('',#846,12.);
#25=CYLINDRICAL_SURFACE('',#854,5.);
#26=CYLINDRICAL_SURFACE('',#858,7.5);
#27=CYLINDRICAL_SURFACE('',#862,10.);
#28=CYLINDRICAL_SURFACE('',#865,12.);
#29=CIRCLE('',#832,11.);
#30=CIRCLE('',#833,12.);
#31=CIRCLE('',#836,11.);
#32=CIRCLE('',#837,12.);
#33=CIRCLE('',#840,11.);
#34=CIRCLE('',#841,12.);
#35=CIRCLE('',#844,12.);
#36=CIRCLE('',#847,12.);
#37=CIRCLE('',#849,6.);
#38=CIRCLE('',#850,11.);
#39=CIRCLE('',#851,8.5);
#40=CIRCLE('',#853,5.);
#41=CIRCLE('',#855,5.);
#42=CIRCLE('',#857,7.5);
#43=CIRCLE('',#859,7.5);
#44=CIRCLE('',#861,10.);
#45=CIRCLE('',#863,10.);
#46=CIRCLE('',#866,12.);
#47=CONICAL_SURFACE('',#831,11.5,0.785398163397449);
#48=CONICAL_SURFACE('',#835,11.5,0.785398163397449);
#49=CONICAL_SURFACE('',#839,11.5,0.785398163397449);
#50=CONICAL_SURFACE('',#852,5.5,0.785398163397448);
#51=CONICAL_SURFACE('',#856,8.,0.785398163397449);
#52=CONICAL_SURFACE('',#860,10.5,0.785398163397448);
#53=FACE_OUTER_BOUND('',#96,.T.);
#54=FACE_OUTER_BOUND('',#97,.T.);
#55=FACE_OUTER_BOUND('',#98,.T.);
#56=FACE_OUTER_BOUND('',#99,.T.);
#57=FACE_OUTER_BOUND('',#100,.T.);
#58=FACE_OUTER_BOUND('',#101,.T.);
#59=FACE_OUTER_BOUND('',#102,.T.);
#60=FACE_OUTER_BOUND('',#103,.T.);
#61=FACE_OUTER_BOUND('',#104,.T.);
#62=FACE_OUTER_BOUND('',#105,.T.);
#63=FACE_OUTER_BOUND('',#106,.T.);
#64=FACE_OUTER_BOUND('',#107,.T.);
#65=FACE_OUTER_BOUND('',#108,.T.);
#66=FACE_OUTER_BOUND('',#109,.T.);
#67=FACE_OUTER_BOUND('',#110,.T.);
#68=FACE_OUTER_BOUND('',#111,.T.);
#69=FACE_OUTER_BOUND('',#112,.T.);
#70=FACE_OUTER_BOUND('',#113,.T.);
#71=FACE_OUTER_BOUND('',#114,.T.);
#72=FACE_OUTER_BOUND('',#115,.T.);
#73=FACE_OUTER_BOUND('',#116,.T.);
#74=FACE_OUTER_BOUND('',#117,.T.);
#75=FACE_OUTER_BOUND('',#118,.T.);
#76=FACE_OUTER_BOUND('',#119,.T.);
#77=FACE_OUTER_BOUND('',#120,.T.);
#78=FACE_OUTER_BOUND('',#121,.T.);
#79=FACE_OUTER_BOUND('',#122,.T.);
#80=FACE_OUTER_BOUND('',#123,.T.);
#81=FACE_OUTER_BOUND('',#124,.T.);
#82=FACE_OUTER_BOUND('',#125,.T.);
#83=FACE_OUTER_BOUND('',#126,.T.);
#84=FACE_OUTER_BOUND('',#127,.T.);
#85=FACE_OUTER_BOUND('',#128,.T.);
#86=FACE_OUTER_BOUND('',#134,.T.);
#87=FACE_OUTER_BOUND('',#135,.T.);
#88=FACE_OUTER_BOUND('',#136,.T.);
#89=FACE_OUTER_BOUND('',#137,.T.);
#90=FACE_OUTER_BOUND('',#138,.T.);
#91=FACE_OUTER_BOUND('',#139,.T.);
#92=FACE_OUTER_BOUND('',#140,.T.);
#93=FACE_OUTER_BOUND('',#141,.T.);
#94=FACE_OUTER_BOUND('',#142,.T.);
#95=FACE_OUTER_BOUND('',#143,.T.);
#96=EDGE_LOOP('',(#504,#505,#506,#507,#508,#509,#510,#511,#512,#513,#514,
#515));
#97=EDGE_LOOP('',(#516,#517,#518,#519));
#98=EDGE_LOOP('',(#520,#521,#522,#523));
#99=EDGE_LOOP('',(#524,#525,#526,#527));
#100=EDGE_LOOP('',(#528,#529,#530,#531));
#101=EDGE_LOOP('',(#532,#533,#534,#535));
#102=EDGE_LOOP('',(#536,#537,#538,#539));
#103=EDGE_LOOP('',(#540,#541,#542,#543));
#104=EDGE_LOOP('',(#544,#545,#546,#547));
#105=EDGE_LOOP('',(#548,#549,#550,#551));
#106=EDGE_LOOP('',(#552,#553,#554,#555));
#107=EDGE_LOOP('',(#556,#557,#558,#559));
#108=EDGE_LOOP('',(#560,#561,#562,#563));
#109=EDGE_LOOP('',(#564,#565,#566,#567,#568,#569,#570,#571,#572));
#110=EDGE_LOOP('',(#573,#574,#575,#576));
#111=EDGE_LOOP('',(#577,#578,#579,#580));
#112=EDGE_LOOP('',(#581,#582,#583,#584));
#113=EDGE_LOOP('',(#585,#586,#587,#588));
#114=EDGE_LOOP('',(#589,#590,#591,#592));
#115=EDGE_LOOP('',(#593,#594,#595,#596));
#116=EDGE_LOOP('',(#597,#598,#599,#600));
#117=EDGE_LOOP('',(#601,#602,#603,#604));
#118=EDGE_LOOP('',(#605,#606,#607,#608));
#119=EDGE_LOOP('',(#609,#610,#611,#612));
#120=EDGE_LOOP('',(#613,#614,#615,#616));
#121=EDGE_LOOP('',(#617,#618,#619,#620));
#122=EDGE_LOOP('',(#621,#622,#623,#624));
#123=EDGE_LOOP('',(#625,#626,#627,#628));
#124=EDGE_LOOP('',(#629,#630,#631,#632));
#125=EDGE_LOOP('',(#633,#634,#635,#636));
#126=EDGE_LOOP('',(#637,#638,#639,#640));
#127=EDGE_LOOP('',(#641,#642,#643,#644));
#128=EDGE_LOOP('',(#645,#646,#647,#648,#649,#650));
#129=EDGE_LOOP('',(#651,#652,#653,#654,#655,#656,#657,#658,#659,#660,#661,
#662));
#130=EDGE_LOOP('',(#663,#664,#665,#666,#667,#668,#669,#670,#671));
#131=EDGE_LOOP('',(#672));
#132=EDGE_LOOP('',(#673));
#133=EDGE_LOOP('',(#674));
#134=EDGE_LOOP('',(#675,#676,#677,#678));
#135=EDGE_LOOP('',(#679,#680,#681,#682));
#136=EDGE_LOOP('',(#683,#684,#685,#686));
#137=EDGE_LOOP('',(#687,#688,#689,#690));
#138=EDGE_LOOP('',(#691,#692,#693,#694));
#139=EDGE_LOOP('',(#695,#696,#697,#698));
#140=EDGE_LOOP('',(#699,#700,#701,#702));
#141=EDGE_LOOP('',(#703,#704,#705,#706));
#142=EDGE_LOOP('',(#707,#708,#709,#710));
#143=EDGE_LOOP('',(#711,#712,#713,#714,#715,#716));
#144=EDGE_LOOP('',(#717));
#145=EDGE_LOOP('',(#718));
#146=EDGE_LOOP('',(#719));
#147=LINE('',#1087,#237);
#148=LINE('',#1089,#238);
#149=LINE('',#1091,#239);
#150=LINE('',#1093,#240);
#151=LINE('',#1095,#241);
#152=LINE('',#1097,#242);
#153=LINE('',#1099,#243);
#154=LINE('',#1101,#244);
#155=LINE('',#1103,#245);
#156=LINE('',#1105,#246);
#157=LINE('',#1107,#247);
#158=LINE('',#1108,#248);
#159=LINE('',#1111,#249);
#160=LINE('',#1113,#250);
#161=LINE('',#1114,#251);
#162=LINE('',#1117,#252);
#163=LINE('',#1118,#253);
#164=LINE('',#1121,#254);
#165=LINE('',#1122,#255);
#166=LINE('',#1125,#256);
#167=LINE('',#1126,#257);
#168=LINE('',#1129,#258);
#169=LINE('',#1130,#259);
#170=LINE('',#1133,#260);
#171=LINE('',#1134,#261);
#172=LINE('',#1137,#262);
#173=LINE('',#1138,#263);
#174=LINE('',#1141,#264);
#175=LINE('',#1142,#265);
#176=LINE('',#1145,#266);
#177=LINE('',#1146,#267);
#178=LINE('',#1149,#268);
#179=LINE('',#1150,#269);
#180=LINE('',#1153,#270);
#181=LINE('',#1154,#271);
#182=LINE('',#1156,#272);
#183=LINE('',#1160,#273);
#184=LINE('',#1162,#274);
#185=LINE('',#1164,#275);
#186=LINE('',#1166,#276);
#187=LINE('',#1168,#277);
#188=LINE('',#1170,#278);
#189=LINE('',#1172,#279);
#190=LINE('',#1174,#280);
#191=LINE('',#1175,#281);
#192=LINE('',#1178,#282);
#193=LINE('',#1180,#283);
#194=LINE('',#1181,#284);
#195=LINE('',#1184,#285);
#196=LINE('',#1185,#286);
#197=LINE('',#1188,#287);
#198=LINE('',#1189,#288);
#199=LINE('',#1192,#289);
#200=LINE('',#1193,#290);
#201=LINE('',#1196,#291);
#202=LINE('',#1197,#292);
#203=LINE('',#1200,#293);
#204=LINE('',#1201,#294);
#205=LINE('',#1204,#295);
#206=LINE('',#1205,#296);
#207=LINE('',#1208,#297);
#208=LINE('',#1209,#298);
#209=LINE('',#1211,#299);
#210=LINE('',#1215,#300);
#211=LINE('',#1219,#301);
#212=LINE('',#1224,#302);
#213=LINE('',#1225,#303);
#214=LINE('',#1226,#304);
#215=LINE('',#1230,#305);
#216=LINE('',#1236,#306);
#217=LINE('',#1237,#307);
#218=LINE('',#1238,#308);
#219=LINE('',#1242,#309);
#220=LINE('',#1246,#310);
#221=LINE('',#1247,#311);
#222=LINE('',#1250,#312);
#223=LINE('',#1253,#313);
#224=LINE('',#1256,#314);
#225=LINE('',#1257,#315);
#226=LINE('',#1260,#316);
#227=LINE('',#1271,#317);
#228=LINE('',#1275,#318);
#229=LINE('',#1279,#319);
#230=LINE('',#1283,#320);
#231=LINE('',#1287,#321);
#232=LINE('',#1291,#322);
#233=LINE('',#1295,#323);
#234=LINE('',#1296,#324);
#235=LINE('',#1299,#325);
#236=LINE('',#1302,#326);
#237=VECTOR('',#873,10.);
#238=VECTOR('',#874,10.);
#239=VECTOR('',#875,10.);
#240=VECTOR('',#876,10.);
#241=VECTOR('',#877,10.);
#242=VECTOR('',#878,10.);
#243=VECTOR('',#879,10.);
#244=VECTOR('',#880,10.);
#245=VECTOR('',#881,10.);
#246=VECTOR('',#882,10.);
#247=VECTOR('',#883,10.);
#248=VECTOR('',#884,10.);
#249=VECTOR('',#887,10.);
#250=VECTOR('',#888,10.);
#251=VECTOR('',#889,10.);
#252=VECTOR('',#892,10.);
#253=VECTOR('',#893,10.);
#254=VECTOR('',#896,10.);
#255=VECTOR('',#897,10.);
#256=VECTOR('',#900,10.);
#257=VECTOR('',#901,10.);
#258=VECTOR('',#904,10.);
#259=VECTOR('',#905,10.);
#260=VECTOR('',#908,10.);
#261=VECTOR('',#909,10.);
#262=VECTOR('',#912,10.);
#263=VECTOR('',#913,10.);
#264=VECTOR('',#916,10.);
#265=VECTOR('',#917,10.);
#266=VECTOR('',#920,10.);
#267=VECTOR('',#921,10.);
#268=VECTOR('',#924,10.);
#269=VECTOR('',#925,10.);
#270=VECTOR('',#928,10.);
#271=VECTOR('',#929,10.);
#272=VECTOR('',#932,10.);
#273=VECTOR('',#935,10.);
#274=VECTOR('',#936,10.);
#275=VECTOR('',#937,10.);
#276=VECTOR('',#938,10.);
#277=VECTOR('',#939,10.);
#278=VECTOR('',#940,10.);
#279=VECTOR('',#941,10.);
#280=VECTOR('',#942,10.);
#281=VECTOR('',#943,10.);
#282=VECTOR('',#946,10.);
#283=VECTOR('',#947,10.);
#284=VECTOR('',#948,10.);
#285=VECTOR('',#951,10.);
#286=VECTOR('',#952,10.);
#287=VECTOR('',#955,10.);
#288=VECTOR('',#956,10.);
#289=VECTOR('',#959,10.);
#290=VECTOR('',#960,10.);
#291=VECTOR('',#963,10.);
#292=VECTOR('',#964,10.);
#293=VECTOR('',#967,10.);
#294=VECTOR('',#968,10.);
#295=VECTOR('',#971,10.);
#296=VECTOR('',#972,10.);
#297=VECTOR('',#975,10.);
#298=VECTOR('',#976,10.);
#299=VECTOR('',#979,10.);
#300=VECTOR('',#982,10.);
#301=VECTOR('',#985,10.);
#302=VECTOR('',#990,10.);
#303=VECTOR('',#991,10.);
#304=VECTOR('',#992,10.);
#305=VECTOR('',#995,10.);
#306=VECTOR('',#1002,10.);
#307=VECTOR('',#1003,10.);
#308=VECTOR('',#1004,10.);
#309=VECTOR('',#1007,10.);
#310=VECTOR('',#1014,10.);
#311=VECTOR('',#1015,10.);
#312=VECTOR('',#1018,10.);
#313=VECTOR('',#1021,10.);
#314=VECTOR('',#1024,10.);
#315=VECTOR('',#1025,10.);
#316=VECTOR('',#1028,10.);
#317=VECTOR('',#1041,5.5);
#318=VECTOR('',#1046,5.);
#319=VECTOR('',#1051,8.);
#320=VECTOR('',#1056,7.5);
#321=VECTOR('',#1061,10.5);
#322=VECTOR('',#1066,10.);
#323=VECTOR('',#1071,10.);
#324=VECTOR('',#1072,10.);
#325=VECTOR('',#1075,10.);
#326=VECTOR('',#1080,10.);
#327=VERTEX_POINT('',#1085);
#328=VERTEX_POINT('',#1086);
#329=VERTEX_POINT('',#1088);
#330=VERTEX_POINT('',#1090);
#331=VERTEX_POINT('',#1092);
#332=VERTEX_POINT('',#1094);
#333=VERTEX_POINT('',#1096);
#334=VERTEX_POINT('',#1098);
#335=VERTEX_POINT('',#1100);
#336=VERTEX_POINT('',#1102);
#337=VERTEX_POINT('',#1104);
#338=VERTEX_POINT('',#1106);
#339=VERTEX_POINT('',#1110);
#340=VERTEX_POINT('',#1112);
#341=VERTEX_POINT('',#1116);
#342=VERTEX_POINT('',#1120);
#343=VERTEX_POINT('',#1124);
#344=VERTEX_POINT('',#1128);
#345=VERTEX_POINT('',#1132);
#346=VERTEX_POINT('',#1136);
#347=VERTEX_POINT('',#1140);
#348=VERTEX_POINT('',#1144);
#349=VERTEX_POINT('',#1148);
#350=VERTEX_POINT('',#1152);
#351=VERTEX_POINT('',#1158);
#352=VERTEX_POINT('',#1159);
#353=VERTEX_POINT('',#1161);
#354=VERTEX_POINT('',#1163);
#355=VERTEX_POINT('',#1165);
#356=VERTEX_POINT('',#1167);
#357=VERTEX_POINT('',#1169);
#358=VERTEX_POINT('',#1171);
#359=VERTEX_POINT('',#1173);
#360=VERTEX_POINT('',#1177);
#361=VERTEX_POINT('',#1179);
#362=VERTEX_POINT('',#1183);
#363=VERTEX_POINT('',#1187);
#364=VERTEX_POINT('',#1191);
#365=VERTEX_POINT('',#1195);
#366=VERTEX_POINT('',#1199);
#367=VERTEX_POINT('',#1203);
#368=VERTEX_POINT('',#1207);
#369=VERTEX_POINT('',#1213);
#370=VERTEX_POINT('',#1214);
#371=VERTEX_POINT('',#1216);
#372=VERTEX_POINT('',#1218);
#373=VERTEX_POINT('',#1222);
#374=VERTEX_POINT('',#1223);
#375=VERTEX_POINT('',#1228);
#376=VERTEX_POINT('',#1229);
#377=VERTEX_POINT('',#1234);
#378=VERTEX_POINT('',#1235);
#379=VERTEX_POINT('',#1240);
#380=VERTEX_POINT('',#1241);
#381=VERTEX_POINT('',#1249);
#382=VERTEX_POINT('',#1251);
#383=VERTEX_POINT('',#1255);
#384=VERTEX_POINT('',#1259);
#385=VERTEX_POINT('',#1263);
#386=VERTEX_POINT('',#1265);
#387=VERTEX_POINT('',#1267);
#388=VERTEX_POINT('',#1270);
#389=VERTEX_POINT('',#1274);
#390=VERTEX_POINT('',#1278);
#391=VERTEX_POINT('',#1282);
#392=VERTEX_POINT('',#1286);
#393=VERTEX_POINT('',#1290);
#394=VERTEX_POINT('',#1294);
#395=VERTEX_POINT('',#1298);
#396=EDGE_CURVE('',#327,#328,#147,.T.);
#397=EDGE_CURVE('',#329,#327,#148,.T.);
#398=EDGE_CURVE('',#330,#329,#149,.T.);
#399=EDGE_CURVE('',#331,#330,#150,.T.);
#400=EDGE_CURVE('',#332,#331,#151,.T.);
#401=EDGE_CURVE('',#333,#332,#152,.T.);
#402=EDGE_CURVE('',#334,#333,#153,.T.);
#403=EDGE_CURVE('',#335,#334,#154,.T.);
#404=EDGE_CURVE('',#336,#335,#155,.T.);
#405=EDGE_CURVE('',#337,#336,#156,.T.);
#406=EDGE_CURVE('',#338,#337,#157,.T.);
#407=EDGE_CURVE('',#328,#338,#158,.T.);
#408=EDGE_CURVE('',#328,#339,#159,.T.);
#409=EDGE_CURVE('',#340,#339,#160,.T.);
#410=EDGE_CURVE('',#327,#340,#161,.T.);
#411=EDGE_CURVE('',#341,#340,#162,.T.);
#412=EDGE_CURVE('',#329,#341,#163,.T.);
#413=EDGE_CURVE('',#342,#341,#164,.T.);
#414=EDGE_CURVE('',#330,#342,#165,.T.);
#415=EDGE_CURVE('',#343,#342,#166,.T.);
#416=EDGE_CURVE('',#331,#343,#167,.T.);
#417=EDGE_CURVE('',#344,#343,#168,.T.);
#418=EDGE_CURVE('',#332,#344,#169,.T.);
#419=EDGE_CURVE('',#345,#344,#170,.T.);
#420=EDGE_CURVE('',#333,#345,#171,.T.);
#421=EDGE_CURVE('',#346,#345,#172,.T.);
#422=EDGE_CURVE('',#334,#346,#173,.T.);
#423=EDGE_CURVE('',#347,#346,#174,.T.);
#424=EDGE_CURVE('',#335,#347,#175,.T.);
#425=EDGE_CURVE('',#348,#347,#176,.T.);
#426=EDGE_CURVE('',#336,#348,#177,.T.);
#427=EDGE_CURVE('',#349,#348,#178,.T.);
#428=EDGE_CURVE('',#337,#349,#179,.T.);
#429=EDGE_CURVE('',#350,#349,#180,.T.);
#430=EDGE_CURVE('',#338,#350,#181,.T.);
#431=EDGE_CURVE('',#339,#350,#182,.T.);
#432=EDGE_CURVE('',#351,#352,#183,.T.);
#433=EDGE_CURVE('',#353,#351,#184,.T.);
#434=EDGE_CURVE('',#354,#353,#185,.T.);
#435=EDGE_CURVE('',#355,#354,#186,.T.);
#436=EDGE_CURVE('',#356,#355,#187,.T.);
#437=EDGE_CURVE('',#357,#356,#188,.T.);
#438=EDGE_CURVE('',#358,#357,#189,.T.);
#439=EDGE_CURVE('',#359,#358,#190,.T.);
#440=EDGE_CURVE('',#352,#359,#191,.T.);
#441=EDGE_CURVE('',#352,#360,#192,.T.);
#442=EDGE_CURVE('',#361,#360,#193,.T.);
#443=EDGE_CURVE('',#351,#361,#194,.T.);
#444=EDGE_CURVE('',#362,#361,#195,.T.);
#445=EDGE_CURVE('',#353,#362,#196,.T.);
#446=EDGE_CURVE('',#363,#362,#197,.T.);
#447=EDGE_CURVE('',#354,#363,#198,.T.);
#448=EDGE_CURVE('',#364,#363,#199,.T.);
#449=EDGE_CURVE('',#355,#364,#200,.T.);
#450=EDGE_CURVE('',#365,#364,#201,.T.);
#451=EDGE_CURVE('',#356,#365,#202,.T.);
#452=EDGE_CURVE('',#366,#365,#203,.T.);
#453=EDGE_CURVE('',#357,#366,#204,.T.);
#454=EDGE_CURVE('',#367,#366,#205,.T.);
#455=EDGE_CURVE('',#358,#367,#206,.T.);
#456=EDGE_CURVE('',#368,#367,#207,.T.);
#457=EDGE_CURVE('',#359,#368,#208,.T.);
#458=EDGE_CURVE('',#360,#368,#209,.T.);
#459=EDGE_CURVE('',#369,#370,#210,.T.);
#460=EDGE_CURVE('',#370,#371,#29,.T.);
#461=EDGE_CURVE('',#371,#372,#211,.T.);
#462=EDGE_CURVE('',#372,#369,#30,.T.);
#463=EDGE_CURVE('',#373,#374,#212,.T.);
#464=EDGE_CURVE('',#374,#370,#213,.T.);
#465=EDGE_CURVE('',#369,#373,#214,.T.);
#466=EDGE_CURVE('',#375,#376,#215,.T.);
#467=EDGE_CURVE('',#376,#374,#31,.T.);
#468=EDGE_CURVE('',#373,#375,#32,.T.);
#469=EDGE_CURVE('',#377,#378,#216,.T.);
#470=EDGE_CURVE('',#378,#376,#217,.T.);
#471=EDGE_CURVE('',#375,#377,#218,.T.);
#472=EDGE_CURVE('',#379,#380,#219,.T.);
#473=EDGE_CURVE('',#380,#378,#33,.T.);
#474=EDGE_CURVE('',#377,#379,#34,.T.);
#475=EDGE_CURVE('',#371,#380,#220,.T.);
#476=EDGE_CURVE('',#379,#372,#221,.T.);
#477=EDGE_CURVE('',#381,#373,#222,.T.);
#478=EDGE_CURVE('',#381,#382,#35,.T.);
#479=EDGE_CURVE('',#382,#375,#223,.T.);
#480=EDGE_CURVE('',#383,#369,#224,.T.);
#481=EDGE_CURVE('',#383,#381,#225,.T.);
#482=EDGE_CURVE('',#384,#372,#226,.T.);
#483=EDGE_CURVE('',#384,#383,#36,.T.);
#484=EDGE_CURVE('',#385,#385,#37,.T.);
#485=EDGE_CURVE('',#386,#386,#38,.T.);
#486=EDGE_CURVE('',#387,#387,#39,.T.);
#487=EDGE_CURVE('',#385,#388,#227,.T.);
#488=EDGE_CURVE('',#388,#388,#40,.T.);
#489=EDGE_CURVE('',#388,#389,#228,.T.);
#490=EDGE_CURVE('',#389,#389,#41,.T.);
#491=EDGE_CURVE('',#387,#390,#229,.T.);
#492=EDGE_CURVE('',#390,#390,#42,.T.);
#493=EDGE_CURVE('',#390,#391,#230,.T.);
#494=EDGE_CURVE('',#391,#391,#43,.T.);
#495=EDGE_CURVE('',#386,#392,#231,.T.);
#496=EDGE_CURVE('',#392,#392,#44,.T.);
#497=EDGE_CURVE('',#392,#393,#232,.T.);
#498=EDGE_CURVE('',#393,#393,#45,.T.);
#499=EDGE_CURVE('',#394,#379,#233,.T.);
#500=EDGE_CURVE('',#394,#384,#234,.T.);
#501=EDGE_CURVE('',#395,#377,#235,.T.);
#502=EDGE_CURVE('',#395,#394,#46,.T.);
#503=EDGE_CURVE('',#382,#395,#236,.T.);
#504=ORIENTED_EDGE('',*,*,#396,.F.);
#505=ORIENTED_EDGE('',*,*,#397,.F.);
#506=ORIENTED_EDGE('',*,*,#398,.F.);
#507=ORIENTED_EDGE('',*,*,#399,.F.);
#508=ORIENTED_EDGE('',*,*,#400,.F.);
#509=ORIENTED_EDGE('',*,*,#401,.F.);
#510=ORIENTED_EDGE('',*,*,#402,.F.);
#511=ORIENTED_EDGE('',*,*,#403,.F.);
#512=ORIENTED_EDGE('',*,*,#404,.F.);
#513=ORIENTED_EDGE('',*,*,#405,.F.);
#514=ORIENTED_EDGE('',*,*,#406,.F.);
#515=ORIENTED_EDGE('',*,*,#407,.F.);
#516=ORIENTED_EDGE('',*,*,#396,.T.);
#517=ORIENTED_EDGE('',*,*,#408,.T.);
#518=ORIENTED_EDGE('',*,*,#409,.F.);
#519=ORIENTED_EDGE('',*,*,#410,.F.);
#520=ORIENTED_EDGE('',*,*,#397,.T.);
#521=ORIENTED_EDGE('',*,*,#410,.T.);
#522=ORIENTED_EDGE('',*,*,#411,.F.);
#523=ORIENTED_EDGE('',*,*,#412,.F.);
#524=ORIENTED_EDGE('',*,*,#398,.T.);
#525=ORIENTED_EDGE('',*,*,#412,.T.);
#526=ORIENTED_EDGE('',*,*,#413,.F.);
#527=ORIENTED_EDGE('',*,*,#414,.F.);
#528=ORIENTED_EDGE('',*,*,#399,.T.);
#529=ORIENTED_EDGE('',*,*,#414,.T.);
#530=ORIENTED_EDGE('',*,*,#415,.F.);
#531=ORIENTED_EDGE('',*,*,#416,.F.);
#532=ORIENTED_EDGE('',*,*,#400,.T.);
#533=ORIENTED_EDGE('',*,*,#416,.T.);
#534=ORIENTED_EDGE('',*,*,#417,.F.);
#535=ORIENTED_EDGE('',*,*,#418,.F.);
#536=ORIENTED_EDGE('',*,*,#401,.T.);
#537=ORIENTED_EDGE('',*,*,#418,.T.);
#538=ORIENTED_EDGE('',*,*,#419,.F.);
#539=ORIENTED_EDGE('',*,*,#420,.F.);
#540=ORIENTED_EDGE('',*,*,#402,.T.);
#541=ORIENTED_EDGE('',*,*,#420,.T.);
#542=ORIENTED_EDGE('',*,*,#421,.F.);
#543=ORIENTED_EDGE('',*,*,#422,.F.);
#544=ORIENTED_EDGE('',*,*,#403,.T.);
#545=ORIENTED_EDGE('',*,*,#422,.T.);
#546=ORIENTED_EDGE('',*,*,#423,.F.);
#547=ORIENTED_EDGE('',*,*,#424,.F.);
#548=ORIENTED_EDGE('',*,*,#404,.T.);
#549=ORIENTED_EDGE('',*,*,#424,.T.);
#550=ORIENTED_EDGE('',*,*,#425,.F.);
#551=ORIENTED_EDGE('',*,*,#426,.F.);
#552=ORIENTED_EDGE('',*,*,#405,.T.);
#553=ORIENTED_EDGE('',*,*,#426,.T.);
#554=ORIENTED_EDGE('',*,*,#427,.F.);
#555=ORIENTED_EDGE('',*,*,#428,.F.);
#556=ORIENTED_EDGE('',*,*,#406,.T.);
#557=ORIENTED_EDGE('',*,*,#428,.T.);
#558=ORIENTED_EDGE('',*,*,#429,.F.);
#559=ORIENTED_EDGE('',*,*,#430,.F.);
#560=ORIENTED_EDGE('',*,*,#407,.T.);
#561=ORIENTED_EDGE('',*,*,#430,.T.);
#562=ORIENTED_EDGE('',*,*,#431,.F.);
#563=ORIENTED_EDGE('',*,*,#408,.F.);
#564=ORIENTED_EDGE('',*,*,#432,.F.);
#565=ORIENTED_EDGE('',*,*,#433,.F.);
#566=ORIENTED_EDGE('',*,*,#434,.F.);
#567=ORIENTED_EDGE('',*,*,#435,.F.);
#568=ORIENTED_EDGE('',*,*,#436,.F.);
#569=ORIENTED_EDGE('',*,*,#437,.F.);
#570=ORIENTED_EDGE('',*,*,#438,.F.);
#571=ORIENTED_EDGE('',*,*,#439,.F.);
#572=ORIENTED_EDGE('',*,*,#440,.F.);
#573=ORIENTED_EDGE('',*,*,#432,.T.);
#574=ORIENTED_EDGE('',*,*,#441,.T.);
#575=ORIENTED_EDGE('',*,*,#442,.F.);
#576=ORIENTED_EDGE('',*,*,#443,.F.);
#577=ORIENTED_EDGE('',*,*,#433,.T.);
#578=ORIENTED_EDGE('',*,*,#443,.T.);
#579=ORIENTED_EDGE('',*,*,#444,.F.);
#580=ORIENTED_EDGE('',*,*,#445,.F.);
#581=ORIENTED_EDGE('',*,*,#434,.T.);
#582=ORIENTED_EDGE('',*,*,#445,.T.);
#583=ORIENTED_EDGE('',*,*,#446,.F.);
#584=ORIENTED_EDGE('',*,*,#447,.F.);
#585=ORIENTED_EDGE('',*,*,#435,.T.);
#586=ORIENTED_EDGE('',*,*,#447,.T.);
#587=ORIENTED_EDGE('',*,*,#448,.F.);
#588=ORIENTED_EDGE('',*,*,#449,.F.);
#589=ORIENTED_EDGE('',*,*,#436,.T.);
#590=ORIENTED_EDGE('',*,*,#449,.T.);
#591=ORIENTED_EDGE('',*,*,#450,.F.);
#592=ORIENTED_EDGE('',*,*,#451,.F.);
#593=ORIENTED_EDGE('',*,*,#437,.T.);
#594=ORIENTED_EDGE('',*,*,#451,.T.);
#595=ORIENTED_EDGE('',*,*,#452,.F.);
#596=ORIENTED_EDGE('',*,*,#453,.F.);
#597=ORIENTED_EDGE('',*,*,#438,.T.);
#598=ORIENTED_EDGE('',*,*,#453,.T.);
#599=ORIENTED_EDGE('',*,*,#454,.F.);
#600=ORIENTED_EDGE('',*,*,#455,.F.);
#601=ORIENTED_EDGE('',*,*,#439,.T.);
#602=ORIENTED_EDGE('',*,*,#455,.T.);
#603=ORIENTED_EDGE('',*,*,#456,.F.);
#604=ORIENTED_EDGE('',*,*,#457,.F.);
#605=ORIENTED_EDGE('',*,*,#440,.T.);
#606=ORIENTED_EDGE('',*,*,#457,.T.);
#607=ORIENTED_EDGE('',*,*,#458,.F.);
#608=ORIENTED_EDGE('',*,*,#441,.F.);
#609=ORIENTED_EDGE('',*,*,#459,.T.);
#610=ORIENTED_EDGE('',*,*,#460,.T.);
#611=ORIENTED_EDGE('',*,*,#461,.T.);
#612=ORIENTED_EDGE('',*,*,#462,.T.);
#613=ORIENTED_EDGE('',*,*,#463,.T.);
#614=ORIENTED_EDGE('',*,*,#464,.T.);
#615=ORIENTED_EDGE('',*,*,#459,.F.);
#616=ORIENTED_EDGE('',*,*,#465,.T.);
#617=ORIENTED_EDGE('',*,*,#466,.T.);
#618=ORIENTED_EDGE('',*,*,#467,.T.);
#619=ORIENTED_EDGE('',*,*,#463,.F.);
#620=ORIENTED_EDGE('',*,*,#468,.T.);
#621=ORIENTED_EDGE('',*,*,#469,.T.);
#622=ORIENTED_EDGE('',*,*,#470,.T.);
#623=ORIENTED_EDGE('',*,*,#466,.F.);
#624=ORIENTED_EDGE('',*,*,#471,.T.);
#625=ORIENTED_EDGE('',*,*,#472,.T.);
#626=ORIENTED_EDGE('',*,*,#473,.T.);
#627=ORIENTED_EDGE('',*,*,#469,.F.);
#628=ORIENTED_EDGE('',*,*,#474,.T.);
#629=ORIENTED_EDGE('',*,*,#461,.F.);
#630=ORIENTED_EDGE('',*,*,#475,.T.);
#631=ORIENTED_EDGE('',*,*,#472,.F.);
#632=ORIENTED_EDGE('',*,*,#476,.T.);
#633=ORIENTED_EDGE('',*,*,#468,.F.);
#634=ORIENTED_EDGE('',*,*,#477,.F.);
#635=ORIENTED_EDGE('',*,*,#478,.T.);
#636=ORIENTED_EDGE('',*,*,#479,.T.);
#637=ORIENTED_EDGE('',*,*,#465,.F.);
#638=ORIENTED_EDGE('',*,*,#480,.F.);
#639=ORIENTED_EDGE('',*,*,#481,.T.);
#640=ORIENTED_EDGE('',*,*,#477,.T.);
#641=ORIENTED_EDGE('',*,*,#462,.F.);
#642=ORIENTED_EDGE('',*,*,#482,.F.);
#643=ORIENTED_EDGE('',*,*,#483,.T.);
#644=ORIENTED_EDGE('',*,*,#480,.T.);
#645=ORIENTED_EDGE('',*,*,#460,.F.);
#646=ORIENTED_EDGE('',*,*,#464,.F.);
#647=ORIENTED_EDGE('',*,*,#467,.F.);
#648=ORIENTED_EDGE('',*,*,#470,.F.);
#649=ORIENTED_EDGE('',*,*,#473,.F.);
#650=ORIENTED_EDGE('',*,*,#475,.F.);
#651=ORIENTED_EDGE('',*,*,#409,.T.);
#652=ORIENTED_EDGE('',*,*,#431,.T.);
#653=ORIENTED_EDGE('',*,*,#429,.T.);
#654=ORIENTED_EDGE('',*,*,#427,.T.);
#655=ORIENTED_EDGE('',*,*,#425,.T.);
#656=ORIENTED_EDGE('',*,*,#423,.T.);
#657=ORIENTED_EDGE('',*,*,#421,.T.);
#658=ORIENTED_EDGE('',*,*,#419,.T.);
#659=ORIENTED_EDGE('',*,*,#417,.T.);
#660=ORIENTED_EDGE('',*,*,#415,.T.);
#661=ORIENTED_EDGE('',*,*,#413,.T.);
#662=ORIENTED_EDGE('',*,*,#411,.T.);
#663=ORIENTED_EDGE('',*,*,#442,.T.);
#664=ORIENTED_EDGE('',*,*,#458,.T.);
#665=ORIENTED_EDGE('',*,*,#456,.T.);
#666=ORIENTED_EDGE('',*,*,#454,.T.);
#667=ORIENTED_EDGE('',*,*,#452,.T.);
#668=ORIENTED_EDGE('',*,*,#450,.T.);
#669=ORIENTED_EDGE('',*,*,#448,.T.);
#670=ORIENTED_EDGE('',*,*,#446,.T.);
#671=ORIENTED_EDGE('',*,*,#444,.T.);
#672=ORIENTED_EDGE('',*,*,#484,.F.);
#673=ORIENTED_EDGE('',*,*,#485,.F.);
#674=ORIENTED_EDGE('',*,*,#486,.F.);
#675=ORIENTED_EDGE('',*,*,#484,.T.);
#676=ORIENTED_EDGE('',*,*,#487,.T.);
#677=ORIENTED_EDGE('',*,*,#488,.T.);
#678=ORIENTED_EDGE('',*,*,#487,.F.);
#679=ORIENTED_EDGE('',*,*,#488,.F.);
#680=ORIENTED_EDGE('',*,*,#489,.T.);
#681=ORIENTED_EDGE('',*,*,#490,.T.);
#682=ORIENTED_EDGE('',*,*,#489,.F.);
#683=ORIENTED_EDGE('',*,*,#486,.T.);
#684=ORIENTED_EDGE('',*,*,#491,.T.);
#685=ORIENTED_EDGE('',*,*,#492,.T.);
#686=ORIENTED_EDGE('',*,*,#491,.F.);
#687=ORIENTED_EDGE('',*,*,#492,.F.);
#688=ORIENTED_EDGE('',*,*,#493,.T.);
#689=ORIENTED_EDGE('',*,*,#494,.T.);
#690=ORIENTED_EDGE('',*,*,#493,.F.);
#691=ORIENTED_EDGE('',*,*,#485,.T.);
#692=ORIENTED_EDGE('',*,*,#495,.T.);
#693=ORIENTED_EDGE('',*,*,#496,.T.);
#694=ORIENTED_EDGE('',*,*,#495,.F.);
#695=ORIENTED_EDGE('',*,*,#496,.F.);
#696=ORIENTED_EDGE('',*,*,#497,.T.);
#697=ORIENTED_EDGE('',*,*,#498,.T.);
#698=ORIENTED_EDGE('',*,*,#497,.F.);
#699=ORIENTED_EDGE('',*,*,#476,.F.);
#700=ORIENTED_EDGE('',*,*,#499,.F.);
#701=ORIENTED_EDGE('',*,*,#500,.T.);
#702=ORIENTED_EDGE('',*,*,#482,.T.);
#703=ORIENTED_EDGE('',*,*,#474,.F.);
#704=ORIENTED_EDGE('',*,*,#501,.F.);
#705=ORIENTED_EDGE('',*,*,#502,.T.);
#706=ORIENTED_EDGE('',*,*,#499,.T.);
#707=ORIENTED_EDGE('',*,*,#471,.F.);
#708=ORIENTED_EDGE('',*,*,#479,.F.);
#709=ORIENTED_EDGE('',*,*,#503,.T.);
#710=ORIENTED_EDGE('',*,*,#501,.T.);
#711=ORIENTED_EDGE('',*,*,#483,.F.);
#712=ORIENTED_EDGE('',*,*,#500,.F.);
#713=ORIENTED_EDGE('',*,*,#502,.F.);
#714=ORIENTED_EDGE('',*,*,#503,.F.);
#715=ORIENTED_EDGE('',*,*,#478,.F.);
#716=ORIENTED_EDGE('',*,*,#481,.F.);
#717=ORIENTED_EDGE('',*,*,#498,.F.);
#718=ORIENTED_EDGE('',*,*,#494,.F.);
#719=ORIENTED_EDGE('',*,*,#490,.F.);
#720=PLANE('',#808);
#721=PLANE('',#809);
#722=PLANE('',#810);
#723=PLANE('',#811);
#724=PLANE('',#812);
#725=PLANE('',#813);
#726=PLANE('',#814);
#727=PLANE('',#815);
#728=PLANE('',#816);
#729=PLANE('',#817);
#730=PLANE('',#818);
#731=PLANE('',#819);
#732=PLANE('',#820);
#733=PLANE('',#821);
#734=PLANE('',#822);
#735=PLANE('',#823);
#736=PLANE('',#824);
#737=PLANE('',#825);
#738=PLANE('',#826);
#739=PLANE('',#827);
#740=PLANE('',#828);
#741=PLANE('',#829);
#742=PLANE('',#830);
#743=PLANE('',#834);
#744=PLANE('',#838);
#745=PLANE('',#842);
#746=PLANE('',#845);
#747=PLANE('',#848);
#748=PLANE('',#864);
#749=PLANE('',#867);
#750=PLANE('',#868);
#751=ADVANCED_FACE('',(#53),#720,.T.);
#752=ADVANCED_FACE('',(#54),#721,.T.);
#753=ADVANCED_FACE('',(#55),#722,.T.);
#754=ADVANCED_FACE('',(#56),#723,.T.);
#755=ADVANCED_FACE('',(#57),#724,.T.);
#756=ADVANCED_FACE('',(#58),#725,.T.);
#757=ADVANCED_FACE('',(#59),#726,.T.);
#758=ADVANCED_FACE('',(#60),#727,.T.);
#759=ADVANCED_FACE('',(#61),#728,.T.);
#760=ADVANCED_FACE('',(#62),#729,.T.);
#761=ADVANCED_FACE('',(#63),#730,.T.);
#762=ADVANCED_FACE('',(#64),#731,.T.);
#763=ADVANCED_FACE('',(#65),#732,.T.);
#764=ADVANCED_FACE('',(#66),#733,.T.);
#765=ADVANCED_FACE('',(#67),#734,.T.);
#766=ADVANCED_FACE('',(#68),#735,.T.);
#767=ADVANCED_FACE('',(#69),#736,.T.);
#768=ADVANCED_FACE('',(#70),#737,.T.);
#769=ADVANCED_FACE('',(#71),#738,.T.);
#770=ADVANCED_FACE('',(#72),#739,.T.);
#771=ADVANCED_FACE('',(#73),#740,.T.);
#772=ADVANCED_FACE('',(#74),#741,.T.);
#773=ADVANCED_FACE('',(#75),#742,.T.);
#774=ADVANCED_FACE('',(#76),#47,.T.);
#775=ADVANCED_FACE('',(#77),#743,.T.);
#776=ADVANCED_FACE('',(#78),#48,.T.);
#777=ADVANCED_FACE('',(#79),#744,.T.);
#778=ADVANCED_FACE('',(#80),#49,.T.);
#779=ADVANCED_FACE('',(#81),#745,.T.);
#780=ADVANCED_FACE('',(#82),#23,.T.);
#781=ADVANCED_FACE('',(#83),#746,.T.);
#782=ADVANCED_FACE('',(#84),#24,.T.);
#783=ADVANCED_FACE('',(#85,#15,#16,#17,#18,#19),#747,.T.);
#784=ADVANCED_FACE('',(#86),#50,.F.);
#785=ADVANCED_FACE('',(#87),#25,.F.);
#786=ADVANCED_FACE('',(#88),#51,.F.);
#787=ADVANCED_FACE('',(#89),#26,.F.);
#788=ADVANCED_FACE('',(#90),#52,.F.);
#789=ADVANCED_FACE('',(#91),#27,.F.);
#790=ADVANCED_FACE('',(#92),#748,.T.);
#791=ADVANCED_FACE('',(#93),#28,.T.);
#792=ADVANCED_FACE('',(#94),#749,.T.);
#793=ADVANCED_FACE('',(#95,#20,#21,#22),#750,.F.);
#794=CLOSED_SHELL('',(#751,#752,#753,#754,#755,#756,#757,#758,#759,#760,
#761,#762,#763,#764,#765,#766,#767,#768,#769,#770,#771,#772,#773,#774,#775,
#776,#777,#778,#779,#780,#781,#782,#783,#784,#785,#786,#787,#788,#789,#790,
#791,#792,#793));
#795=DERIVED_UNIT_ELEMENT(#797,1.);
#796=DERIVED_UNIT_ELEMENT(#1309,-3.);
#797=(
MASS_UNIT()
NAMED_UNIT(*)
SI_UNIT(.KILO.,.GRAM.)
);
#798=DERIVED_UNIT((#795,#796));
#799=MEASURE_REPRESENTATION_ITEM('density measure',
POSITIVE_RATIO_MEASURE(7850.),#798);
#800=PROPERTY_DEFINITION_REPRESENTATION(#805,#802);
#801=PROPERTY_DEFINITION_REPRESENTATION(#806,#803);
#802=REPRESENTATION('material name',(#804),#1306);
#803=REPRESENTATION('density',(#799),#1306);
#804=DESCRIPTIVE_REPRESENTATION_ITEM('Stahl','Stahl');
#805=PROPERTY_DEFINITION('material property','material name',#1316);
#806=PROPERTY_DEFINITION('material property','density of part',#1316);
#807=AXIS2_PLACEMENT_3D('',#1083,#869,#870);
#808=AXIS2_PLACEMENT_3D('',#1084,#871,#872);
#809=AXIS2_PLACEMENT_3D('',#1109,#885,#886);
#810=AXIS2_PLACEMENT_3D('',#1115,#890,#891);
#811=AXIS2_PLACEMENT_3D('',#1119,#894,#895);
#812=AXIS2_PLACEMENT_3D('',#1123,#898,#899);
#813=AXIS2_PLACEMENT_3D('',#1127,#902,#903);
#814=AXIS2_PLACEMENT_3D('',#1131,#906,#907);
#815=AXIS2_PLACEMENT_3D('',#1135,#910,#911);
#816=AXIS2_PLACEMENT_3D('',#1139,#914,#915);
#817=AXIS2_PLACEMENT_3D('',#1143,#918,#919);
#818=AXIS2_PLACEMENT_3D('',#1147,#922,#923);
#819=AXIS2_PLACEMENT_3D('',#1151,#926,#927);
#820=AXIS2_PLACEMENT_3D('',#1155,#930,#931);
#821=AXIS2_PLACEMENT_3D('',#1157,#933,#934);
#822=AXIS2_PLACEMENT_3D('',#1176,#944,#945);
#823=AXIS2_PLACEMENT_3D('',#1182,#949,#950);
#824=AXIS2_PLACEMENT_3D('',#1186,#953,#954);
#825=AXIS2_PLACEMENT_3D('',#1190,#957,#958);
#826=AXIS2_PLACEMENT_3D('',#1194,#961,#962);
#827=AXIS2_PLACEMENT_3D('',#1198,#965,#966);
#828=AXIS2_PLACEMENT_3D('',#1202,#969,#970);
#829=AXIS2_PLACEMENT_3D('',#1206,#973,#974);
#830=AXIS2_PLACEMENT_3D('',#1210,#977,#978);
#831=AXIS2_PLACEMENT_3D('',#1212,#980,#981);
#832=AXIS2_PLACEMENT_3D('',#1217,#983,#984);
#833=AXIS2_PLACEMENT_3D('',#1220,#986,#987);
#834=AXIS2_PLACEMENT_3D('',#1221,#988,#989);
#835=AXIS2_PLACEMENT_3D('',#1227,#993,#994);
#836=AXIS2_PLACEMENT_3D('',#1231,#996,#997);
#837=AXIS2_PLACEMENT_3D('',#1232,#998,#999);
#838=AXIS2_PLACEMENT_3D('',#1233,#1000,#1001);
#839=AXIS2_PLACEMENT_3D('',#1239,#1005,#1006);
#840=AXIS2_PLACEMENT_3D('',#1243,#1008,#1009);
#841=AXIS2_PLACEMENT_3D('',#1244,#1010,#1011);
#842=AXIS2_PLACEMENT_3D('',#1245,#1012,#1013);
#843=AXIS2_PLACEMENT_3D('',#1248,#1016,#1017);
#844=AXIS2_PLACEMENT_3D('',#1252,#1019,#1020);
#845=AXIS2_PLACEMENT_3D('',#1254,#1022,#1023);
#846=AXIS2_PLACEMENT_3D('',#1258,#1026,#1027);
#847=AXIS2_PLACEMENT_3D('',#1261,#1029,#1030);
#848=AXIS2_PLACEMENT_3D('',#1262,#1031,#1032);
#849=AXIS2_PLACEMENT_3D('',#1264,#1033,#1034);
#850=AXIS2_PLACEMENT_3D('',#1266,#1035,#1036);
#851=AXIS2_PLACEMENT_3D('',#1268,#1037,#1038);
#852=AXIS2_PLACEMENT_3D('',#1269,#1039,#1040);
#853=AXIS2_PLACEMENT_3D('',#1272,#1042,#1043);
#854=AXIS2_PLACEMENT_3D('',#1273,#1044,#1045);
#855=AXIS2_PLACEMENT_3D('',#1276,#1047,#1048);
#856=AXIS2_PLACEMENT_3D('',#1277,#1049,#1050);
#857=AXIS2_PLACEMENT_3D('',#1280,#1052,#1053);
#858=AXIS2_PLACEMENT_3D('',#1281,#1054,#1055);
#859=AXIS2_PLACEMENT_3D('',#1284,#1057,#1058);
#860=AXIS2_PLACEMENT_3D('',#1285,#1059,#1060);
#861=AXIS2_PLACEMENT_3D('',#1288,#1062,#1063);
#862=AXIS2_PLACEMENT_3D('',#1289,#1064,#1065);
#863=AXIS2_PLACEMENT_3D('',#1292,#1067,#1068);
#864=AXIS2_PLACEMENT_3D('',#1293,#1069,#1070);
#865=AXIS2_PLACEMENT_3D('',#1297,#1073,#1074);
#866=AXIS2_PLACEMENT_3D('',#1300,#1076,#1077);
#867=AXIS2_PLACEMENT_3D('',#1301,#1078,#1079);
#868=AXIS2_PLACEMENT_3D('',#1303,#1081,#1082);
#869=DIRECTION('axis',(0.,0.,1.));
#870=DIRECTION('refdir',(1.,0.,0.));
#871=DIRECTION('center_axis',(0.,0.,1.));
#872=DIRECTION('ref_axis',(1.,0.,0.));
#873=DIRECTION('',(-0.540841382862366,-0.841124603482459,0.));
#874=DIRECTION('',(-0.539665978481508,0.841879226296502,0.));
#875=DIRECTION('',(-1.,-7.59844326345332E-16,0.));
#876=DIRECTION('',(0.553424965223624,-0.832899038219658,0.));
#877=DIRECTION('',(-0.539322127103968,-0.842099544719062,0.));
#878=DIRECTION('',(1.,1.58171715601051E-15,0.));
#879=DIRECTION('',(0.521669651921094,0.8531475688675,0.));
#880=DIRECTION('',(0.529513186394832,-0.848301706607968,0.));
#881=DIRECTION('',(1.,1.5680030652437E-15,0.));
#882=DIRECTION('',(-0.543598709768746,0.839345246449728,0.));
#883=DIRECTION('',(0.547867882068335,0.836564871243083,0.));
#884=DIRECTION('',(-1.,-7.64125434484153E-16,0.));
#885=DIRECTION('center_axis',(-0.841124603482459,0.540841382862366,0.));
#886=DIRECTION('ref_axis',(0.,0.,1.));
#887=DIRECTION('',(0.,0.,1.));
#888=DIRECTION('',(-0.540841382862366,-0.841124603482459,0.));
#889=DIRECTION('',(0.,0.,1.));
#890=DIRECTION('center_axis',(0.841879226296502,0.539665978481508,0.));
#891=DIRECTION('ref_axis',(0.,0.,-1.));
#892=DIRECTION('',(-0.539665978481508,0.841879226296502,0.));
#893=DIRECTION('',(0.,0.,1.));
#894=DIRECTION('center_axis',(-7.59844326345332E-16,1.,0.));
#895=DIRECTION('ref_axis',(0.,0.,1.));
#896=DIRECTION('',(-1.,-7.59844326345332E-16,0.));
#897=DIRECTION('',(0.,0.,1.));
#898=DIRECTION('center_axis',(-0.832899038219658,-0.553424965223624,0.));
#899=DIRECTION('ref_axis',(0.,0.,1.));
#900=DIRECTION('',(0.553424965223624,-0.832899038219658,0.));
#901=DIRECTION('',(0.,0.,1.));
#902=DIRECTION('center_axis',(-0.842099544719062,0.539322127103968,0.));
#903=DIRECTION('ref_axis',(0.,0.,1.));
#904=DIRECTION('',(-0.539322127103968,-0.842099544719062,0.));
#905=DIRECTION('',(0.,0.,1.));
#906=DIRECTION('center_axis',(1.58171715601051E-15,-1.,0.));
#907=DIRECTION('ref_axis',(0.,0.,-1.));
#908=DIRECTION('',(1.,1.58171715601051E-15,0.));
#909=DIRECTION('',(0.,0.,1.));
#910=DIRECTION('center_axis',(0.8531475688675,-0.521669651921094,0.));
#911=DIRECTION('ref_axis',(0.,0.,-1.));
#912=DIRECTION('',(0.521669651921094,0.8531475688675,0.));
#913=DIRECTION('',(0.,0.,1.));
#914=DIRECTION('center_axis',(-0.848301706607968,-0.529513186394832,0.));
#915=DIRECTION('ref_axis',(0.,0.,1.));
#916=DIRECTION('',(0.529513186394832,-0.848301706607968,0.));
#917=DIRECTION('',(0.,0.,1.));
#918=DIRECTION('center_axis',(1.5680030652437E-15,-1.,0.));
#919=DIRECTION('ref_axis',(0.,0.,-1.));
#920=DIRECTION('',(1.,1.5680030652437E-15,0.));
#921=DIRECTION('',(0.,0.,1.));
#922=DIRECTION('center_axis',(0.839345246449728,0.543598709768746,0.));
#923=DIRECTION('ref_axis',(0.,0.,-1.));
#924=DIRECTION('',(-0.543598709768746,0.839345246449728,0.));
#925=DIRECTION('',(0.,0.,1.));
#926=DIRECTION('center_axis',(0.836564871243083,-0.547867882068335,0.));
#927=DIRECTION('ref_axis',(0.,0.,-1.));
#928=DIRECTION('',(0.547867882068335,0.836564871243083,0.));
#929=DIRECTION('',(0.,0.,1.));
#930=DIRECTION('center_axis',(-7.64125434484153E-16,1.,0.));
#931=DIRECTION('ref_axis',(0.,0.,1.));
#932=DIRECTION('',(-1.,-7.64125434484153E-16,0.));
#933=DIRECTION('center_axis',(0.,0.,1.));
#934=DIRECTION('ref_axis',(1.,0.,0.));
#935=DIRECTION('',(0.,-1.,0.));
#936=DIRECTION('',(-0.535075710347747,-0.844804109954404,0.));
#937=DIRECTION('',(1.,0.,0.));
#938=DIRECTION('',(0.503500478453455,0.863994946858569,0.));
#939=DIRECTION('',(0.511223355621619,-0.859447892932999,0.));
#940=DIRECTION('',(1.,0.,0.));
#941=DIRECTION('',(-0.534554673341678,0.845133895432299,0.));
#942=DIRECTION('',(0.,1.,0.));
#943=DIRECTION('',(-1.,0.,0.));
#944=DIRECTION('center_axis',(-1.,0.,0.));
#945=DIRECTION('ref_axis',(0.,0.,1.));
#946=DIRECTION('',(0.,0.,1.));
#947=DIRECTION('',(0.,-1.,0.));
#948=DIRECTION('',(0.,0.,1.));
#949=DIRECTION('center_axis',(-0.844804109954404,0.535075710347748,0.));
#950=DIRECTION('ref_axis',(0.,0.,1.));
#951=DIRECTION('',(-0.535075710347748,-0.844804109954404,0.));
#952=DIRECTION('',(0.,0.,1.));
#953=DIRECTION('center_axis',(0.,-1.,0.));
#954=DIRECTION('ref_axis',(0.,0.,-1.));
#955=DIRECTION('',(1.,0.,0.));
#956=DIRECTION('',(0.,0.,1.));
#957=DIRECTION('center_axis',(0.863994946858569,-0.503500478453455,0.));
#958=DIRECTION('ref_axis',(0.,0.,-1.));
#959=DIRECTION('',(0.503500478453455,0.863994946858569,0.));
#960=DIRECTION('',(0.,0.,1.));
#961=DIRECTION('center_axis',(-0.859447892932999,-0.511223355621619,0.));
#962=DIRECTION('ref_axis',(0.,0.,1.));
#963=DIRECTION('',(0.511223355621619,-0.859447892932999,0.));
#964=DIRECTION('',(0.,0.,1.));
#965=DIRECTION('center_axis',(0.,-1.,0.));
#966=DIRECTION('ref_axis',(0.,0.,-1.));
#967=DIRECTION('',(1.,0.,0.));
#968=DIRECTION('',(0.,0.,1.));
#969=DIRECTION('center_axis',(0.845133895432299,0.534554673341678,0.));
#970=DIRECTION('ref_axis',(0.,0.,-1.));
#971=DIRECTION('',(-0.534554673341678,0.845133895432299,0.));
#972=DIRECTION('',(0.,0.,1.));
#973=DIRECTION('center_axis',(1.,0.,0.));
#974=DIRECTION('ref_axis',(0.,0.,-1.));
#975=DIRECTION('',(0.,1.,0.));
#976=DIRECTION('',(0.,0.,1.));
#977=DIRECTION('center_axis',(0.,1.,0.));
#978=DIRECTION('ref_axis',(0.,0.,1.));
#979=DIRECTION('',(-1.,0.,0.));
#980=DIRECTION('center_axis',(0.,0.,-1.));
#981=DIRECTION('ref_axis',(-0.866025403784439,0.499999999999999,0.));
#982=DIRECTION('',(0.,0.707106781186549,0.707106781186546));
#983=DIRECTION('center_axis',(0.,0.,-1.));
#984=DIRECTION('ref_axis',(-0.866025403784439,0.499999999999999,0.));
#985=DIRECTION('',(-0.612372435695796,0.353553390593273,-0.707106781186546));
#986=DIRECTION('center_axis',(0.,0.,1.));
#987=DIRECTION('ref_axis',(-0.866025403784439,0.499999999999999,0.));
#988=DIRECTION('center_axis',(6.80573192356528E-17,-0.707106781186547,0.707106781186548));
#989=DIRECTION('ref_axis',(1.,0.,-9.62475838818155E-17));
#990=DIRECTION('',(0.,0.707106781186548,0.707106781186547));
#991=DIRECTION('',(-1.,-9.62475838818156E-17,0.));
#992=DIRECTION('',(1.,9.62475838818156E-17,0.));
#993=DIRECTION('center_axis',(0.,0.,-1.));
#994=DIRECTION('ref_axis',(-7.40148683083438E-16,-1.,0.));
#995=DIRECTION('',(-0.612372435695794,-0.353553390593274,0.707106781186547));
#996=DIRECTION('center_axis',(0.,0.,-1.));
#997=DIRECTION('ref_axis',(-7.40148683083438E-16,-1.,0.));
#998=DIRECTION('center_axis',(0.,0.,1.));
#999=DIRECTION('ref_axis',(-7.40148683083438E-16,-1.,0.));
#1000=DIRECTION('center_axis',(0.612372435695794,0.353553390593274,0.707106781186548));
#1001=DIRECTION('ref_axis',(0.755928946018455,0.,-0.654653670707977));
#1002=DIRECTION('',(-0.612372435695795,-0.353553390593274,0.707106781186547));
#1003=DIRECTION('',(0.5,-0.866025403784439,0.));
#1004=DIRECTION('',(-0.5,0.866025403784439,0.));
#1005=DIRECTION('center_axis',(0.,0.,-1.));
#1006=DIRECTION('ref_axis',(0.866025403784438,0.500000000000001,0.));
#1007=DIRECTION('',(0.612372435695793,-0.353553390593276,0.707106781186548));
#1008=DIRECTION('center_axis',(0.,0.,-1.));
#1009=DIRECTION('ref_axis',(0.866025403784438,0.500000000000001,0.));
#1010=DIRECTION('center_axis',(0.,0.,1.));
#1011=DIRECTION('ref_axis',(0.866025403784438,0.500000000000001,0.));
#1012=DIRECTION('center_axis',(-0.612372435695794,0.353553390593274,0.707106781186548));
#1013=DIRECTION('ref_axis',(0.755928946018455,0.,0.654653670707976));
#1014=DIRECTION('',(0.5,0.866025403784439,0.));
#1015=DIRECTION('',(-0.5,-0.866025403784439,0.));
#1016=DIRECTION('center_axis',(0.,0.,1.));
#1017=DIRECTION('ref_axis',(-7.40148683083438E-16,-1.,0.));
#1018=DIRECTION('',(0.,0.,1.));
#1019=DIRECTION('center_axis',(0.,0.,1.));
#1020=DIRECTION('ref_axis',(-7.40148683083438E-16,-1.,0.));
#1021=DIRECTION('',(0.,0.,1.));
#1022=DIRECTION('center_axis',(9.62475838818156E-17,-1.,0.));
#1023=DIRECTION('ref_axis',(1.,9.62475838818156E-17,0.));
#1024=DIRECTION('',(0.,0.,1.));
#1025=DIRECTION('',(1.,9.62475838818156E-17,0.));
#1026=DIRECTION('center_axis',(0.,0.,1.));
#1027=DIRECTION('ref_axis',(-0.866025403784439,0.499999999999999,0.));
#1028=DIRECTION('',(0.,0.,1.));
#1029=DIRECTION('center_axis',(0.,0.,1.));
#1030=DIRECTION('ref_axis',(-0.866025403784439,0.499999999999999,0.));
#1031=DIRECTION('center_axis',(0.,0.,1.));
#1032=DIRECTION('ref_axis',(1.,0.,0.));
#1033=DIRECTION('center_axis',(0.,0.,1.));
#1034=DIRECTION('ref_axis',(1.,0.,0.));
#1035=DIRECTION('center_axis',(0.,0.,1.));
#1036=DIRECTION('ref_axis',(1.,0.,0.));
#1037=DIRECTION('center_axis',(0.,0.,1.));
#1038=DIRECTION('ref_axis',(1.,0.,0.));
#1039=DIRECTION('center_axis',(0.,0.,1.));
#1040=DIRECTION('ref_axis',(1.,0.,0.));
#1041=DIRECTION('',(0.707106781186548,8.65956056235493E-17,-0.707106781186548));
#1042=DIRECTION('center_axis',(0.,0.,-1.));
#1043=DIRECTION('ref_axis',(1.,0.,0.));
#1044=DIRECTION('center_axis',(0.,0.,1.));
#1045=DIRECTION('ref_axis',(1.,0.,0.));
#1046=DIRECTION('',(0.,0.,-1.));
#1047=DIRECTION('center_axis',(0.,0.,-1.));
#1048=DIRECTION('ref_axis',(1.,0.,0.));
#1049=DIRECTION('center_axis',(0.,0.,1.));
#1050=DIRECTION('ref_axis',(1.,0.,0.));
#1051=DIRECTION('',(0.707106781186548,8.65956056235494E-17,-0.707106781186547));
#1052=DIRECTION('center_axis',(0.,0.,-1.));
#1053=DIRECTION('ref_axis',(1.,0.,0.));
#1054=DIRECTION('center_axis',(0.,0.,1.));
#1055=DIRECTION('ref_axis',(1.,0.,0.));
#1056=DIRECTION('',(0.,0.,-1.));
#1057=DIRECTION('center_axis',(0.,0.,-1.));
#1058=DIRECTION('ref_axis',(1.,0.,0.));
#1059=DIRECTION('center_axis',(0.,0.,1.));
#1060=DIRECTION('ref_axis',(1.,0.,0.));
#1061=DIRECTION('',(0.707106781186547,8.65956056235493E-17,-0.707106781186548));
#1062=DIRECTION('center_axis',(0.,0.,-1.));
#1063=DIRECTION('ref_axis',(1.,0.,0.));
#1064=DIRECTION('center_axis',(0.,0.,1.));
#1065=DIRECTION('ref_axis',(1.,0.,0.));
#1066=DIRECTION('',(0.,0.,-1.));
#1067=DIRECTION('center_axis',(0.,0.,-1.));
#1068=DIRECTION('ref_axis',(1.,0.,0.));
#1069=DIRECTION('center_axis',(-0.866025403784439,0.5,0.));
#1070=DIRECTION('ref_axis',(-0.5,-0.866025403784439,0.));
#1071=DIRECTION('',(0.,0.,1.));
#1072=DIRECTION('',(-0.5,-0.866025403784439,0.));
#1073=DIRECTION('center_axis',(0.,0.,1.));
#1074=DIRECTION('ref_axis',(0.866025403784438,0.500000000000001,0.));
#1075=DIRECTION('',(0.,0.,1.));
#1076=DIRECTION('center_axis',(0.,0.,1.));
#1077=DIRECTION('ref_axis',(0.866025403784438,0.500000000000001,0.));
#1078=DIRECTION('center_axis',(0.866025403784439,0.5,0.));
#1079=DIRECTION('ref_axis',(-0.5,0.866025403784439,0.));
#1080=DIRECTION('',(-0.5,0.866025403784439,0.));
#1081=DIRECTION('center_axis',(0.,0.,1.));
#1082=DIRECTION('ref_axis',(1.,0.,0.));
#1083=CARTESIAN_POINT('',(0.,0.,0.));
#1084=CARTESIAN_POINT('Origin',(-0.0538433069517064,4.42314844946504,9.25));
#1085=CARTESIAN_POINT('',(14.785765104822,5.02042982434931,9.25));
#1086=CARTESIAN_POINT('',(14.1186436944521,3.98291263436976,9.25));
#1087=CARTESIAN_POINT('',(14.785765104822,5.02042982434931,9.25));
#1088=CARTESIAN_POINT('',(15.4508399897135,3.98291263436976,9.25));
#1089=CARTESIAN_POINT('',(15.4508399897135,3.98291263436976,9.25));
#1090=CARTESIAN_POINT('',(16.1813995175875,3.98291263436976,9.25));
#1091=CARTESIAN_POINT('',(16.1813995175875,3.98291263436976,9.25));
#1092=CARTESIAN_POINT('',(15.1561607354201,5.52588674878779,9.25));
#1093=CARTESIAN_POINT('',(15.1561607354201,5.52588674878779,9.25));
#1094=CARTESIAN_POINT('',(16.0893121295489,6.98291275357905,9.25));
#1095=CARTESIAN_POINT('',(16.0893121295489,6.98291275357905,9.25));
#1096=CARTESIAN_POINT('',(15.3874021702326,6.98291275357905,9.25));
#1097=CARTESIAN_POINT('',(15.3874021702326,6.98291275357905,9.25));
#1098=CARTESIAN_POINT('',(14.7980435126341,6.01906541442576,9.25));
#1099=CARTESIAN_POINT('',(14.7980435126341,6.01906541442576,9.25));
#1100=CARTESIAN_POINT('',(14.1964062982119,6.98291275357905,9.25));
#1101=CARTESIAN_POINT('',(14.1964062982119,6.98291275357905,9.25));
#1102=CARTESIAN_POINT('',(13.4883572840012,6.98291275357905,9.25));
#1103=CARTESIAN_POINT('',(13.4883572840012,6.98291275357905,9.25));
#1104=CARTESIAN_POINT('',(14.4174158506907,5.54839703893366,9.25));
#1105=CARTESIAN_POINT('',(14.4174158506907,5.54839703893366,9.25));
#1106=CARTESIAN_POINT('',(13.3921772175349,3.98291263436976,9.25));
#1107=CARTESIAN_POINT('',(13.3921772175349,3.98291263436976,9.25));
#1108=CARTESIAN_POINT('',(14.1186436944521,3.98291263436976,9.25));
#1109=CARTESIAN_POINT('Origin',(14.4522043996371,4.50167122935954,10.));
#1110=CARTESIAN_POINT('',(14.1186436944521,3.98291263436976,10.));
#1111=CARTESIAN_POINT('',(14.1186436944521,3.98291263436976,10.));
#1112=CARTESIAN_POINT('',(14.785765104822,5.02042982434931,10.));
#1113=CARTESIAN_POINT('',(12.3127661388897,1.17438486450631,10.));
#1114=CARTESIAN_POINT('',(14.785765104822,5.02042982434931,10.));
#1115=CARTESIAN_POINT('Origin',(15.1183025472678,4.50167122935954,10.));
#1116=CARTESIAN_POINT('',(15.4508399897135,3.98291263436976,10.));
#1117=CARTESIAN_POINT('',(12.926777227578,7.9204519457964,10.));
#1118=CARTESIAN_POINT('',(15.4508399897135,3.98291263436976,10.));
#1119=CARTESIAN_POINT('Origin',(15.8161197536505,3.98291263436976,10.));
#1120=CARTESIAN_POINT('',(16.1813995175875,3.98291263436976,10.));
#1121=CARTESIAN_POINT('',(7.88113822334941,3.98291263436975,10.));
#1122=CARTESIAN_POINT('',(16.1813995175875,3.98291263436976,10.));
#1123=CARTESIAN_POINT('Origin',(15.6687801265038,4.75439969157877,10.));
#1124=CARTESIAN_POINT('',(15.1561607354201,5.52588674878779,10.));
#1125=CARTESIAN_POINT('',(13.3373685780339,8.26315075710068,10.));
#1126=CARTESIAN_POINT('',(15.1561607354201,5.52588674878779,10.));
#1127=CARTESIAN_POINT('Origin',(15.6227364324845,6.25439975118342,10.));
#1128=CARTESIAN_POINT('',(16.0893121295489,6.98291275357905,10.));
#1129=CARTESIAN_POINT('',(12.9269827209762,2.04524003187858,10.));
#1130=CARTESIAN_POINT('',(16.0893121295489,6.98291275357905,10.));
#1131=CARTESIAN_POINT('Origin',(15.7383571498908,6.98291275357905,10.));
#1132=CARTESIAN_POINT('',(15.3874021702326,6.98291275357905,10.));
#1133=CARTESIAN_POINT('',(7.84225692146952,6.98291275357904,10.));
#1134=CARTESIAN_POINT('',(15.3874021702326,6.98291275357905,10.));
#1135=CARTESIAN_POINT('Origin',(15.0927228414334,6.5009890840024,10.));
#1136=CARTESIAN_POINT('',(14.7980435126341,6.01906541442576,10.));
#1137=CARTESIAN_POINT('',(12.569352331134,2.37422532021826,10.));
#1138=CARTESIAN_POINT('',(14.7980435126341,6.01906541442576,10.));
#1139=CARTESIAN_POINT('Origin',(14.497224905423,6.5009890840024,10.));
#1140=CARTESIAN_POINT('',(14.1964062982119,6.98291275357905,10.));
#1141=CARTESIAN_POINT('',(12.9239494274073,9.02144052365745,10.));
#1142=CARTESIAN_POINT('',(14.1964062982119,6.98291275357905,10.));
#1143=CARTESIAN_POINT('Origin',(13.8423817911066,6.98291275357905,10.));
#1144=CARTESIAN_POINT('',(13.4883572840012,6.98291275357905,10.));
#1145=CARTESIAN_POINT('',(6.89426924207742,6.98291275357904,10.));
#1146=CARTESIAN_POINT('',(13.4883572840012,6.98291275357905,10.));
#1147=CARTESIAN_POINT('Origin',(13.952886567346,6.26565489625635,10.));
#1148=CARTESIAN_POINT('',(14.4174158506907,5.54839703893366,10.));
#1149=CARTESIAN_POINT('',(12.3037327671218,8.81203585339935,10.));
#1150=CARTESIAN_POINT('',(14.4174158506907,5.54839703893366,10.));
#1151=CARTESIAN_POINT('Origin',(13.9047965341128,4.76565483665171,10.));
#1152=CARTESIAN_POINT('',(13.3921772175349,3.98291263436976,10.));
#1153=CARTESIAN_POINT('',(11.7313993705346,1.44699393715753,10.));
#1154=CARTESIAN_POINT('',(13.3921772175349,3.98291263436976,10.));
#1155=CARTESIAN_POINT('Origin',(13.7554104559935,3.98291263436976,10.));
#1156=CARTESIAN_POINT('',(6.8507835745209,3.98291263436975,10.));
#1157=CARTESIAN_POINT('Origin',(-0.0538433069517064,4.42314844946504,9.25));
#1158=CARTESIAN_POINT('',(0.299795444007032,-14.2414736747742,9.25));
#1159=CARTESIAN_POINT('',(0.299795444007032,-15.5000004172325,9.25));
#1160=CARTESIAN_POINT('',(0.299795444007032,-14.2414736747742,9.25));
#1161=CARTESIAN_POINT('',(1.40279682993423,-12.5000002980232,9.25));
#1162=CARTESIAN_POINT('',(1.40279682993423,-12.5000002980232,9.25));
#1163=CARTESIAN_POINT('',(0.70497962355148,-12.5000002980232,9.25));
#1164=CARTESIAN_POINT('',(0.70497962355148,-12.5000002980232,9.25));
#1165=CARTESIAN_POINT('',(0.0133015465689823,-13.6869035661221,9.25));
#1166=CARTESIAN_POINT('',(0.0133015465689823,-13.6869035661221,9.25));
#1167=CARTESIAN_POINT('',(-0.692701314692385,-12.5000002980232,9.25));
#1168=CARTESIAN_POINT('',(-0.692701314692385,-12.5000002980232,9.25));
#1169=CARTESIAN_POINT('',(-1.40279681712855,-12.5000002980232,9.25));
#1170=CARTESIAN_POINT('',(-1.40279681712855,-12.5000002980232,9.25));
#1171=CARTESIAN_POINT('',(-0.303887997870333,-14.2373812198639,9.25));
#1172=CARTESIAN_POINT('',(-0.303887997870333,-14.2373812198639,9.25));
#1173=CARTESIAN_POINT('',(-0.303887997870333,-15.5000004172325,9.25));
#1174=CARTESIAN_POINT('',(-0.303887997870333,-15.5000004172325,9.25));
#1175=CARTESIAN_POINT('',(0.299795444007032,-15.5000004172325,9.25));
#1176=CARTESIAN_POINT('Origin',(0.299795444007032,-14.8707370460033,10.));
#1177=CARTESIAN_POINT('',(0.299795444007032,-15.5000004172325,10.));
#1178=CARTESIAN_POINT('',(0.299795444007032,-15.5000004172325,10.));
#1179=CARTESIAN_POINT('',(0.299795444007032,-14.2414736747742,10.));
#1180=CARTESIAN_POINT('',(0.299795444007032,-5.22379429826915,10.));
#1181=CARTESIAN_POINT('',(0.299795444007032,-14.2414736747742,10.));
#1182=CARTESIAN_POINT('Origin',(0.851296136970632,-13.3707369863987,10.));
#1183=CARTESIAN_POINT('',(1.40279682993423,-12.5000002980232,10.));
#1184=CARTESIAN_POINT('',(4.74344472429621,-7.22561946463916,10.));
#1185=CARTESIAN_POINT('',(1.40279682993423,-12.5000002980232,10.));
#1186=CARTESIAN_POINT('Origin',(1.05388822674286,-12.5000002980232,10.));
#1187=CARTESIAN_POINT('',(0.70497962355148,-12.5000002980232,10.));
#1188=CARTESIAN_POINT('',(0.500022459895575,-12.5000002980232,10.));
#1189=CARTESIAN_POINT('',(0.70497962355148,-12.5000002980232,10.));
#1190=CARTESIAN_POINT('Origin',(0.359140585060231,-13.0934519320726,10.));
#1191=CARTESIAN_POINT('',(0.0133015465689823,-13.6869035661221,10.));
#1192=CARTESIAN_POINT('',(4.11684436707607,-6.64532086092581,10.));
#1193=CARTESIAN_POINT('',(0.0133015465689823,-13.6869035661221,10.));
#1194=CARTESIAN_POINT('Origin',(-0.339699884061702,-13.0934519320726,10.));
#1195=CARTESIAN_POINT('',(-0.692701314692385,-12.5000002980232,10.));
#1196=CARTESIAN_POINT('',(-4.15047858990215,-6.68692591335017,10.));
#1197=CARTESIAN_POINT('',(-0.692701314692385,-12.5000002980232,10.));
#1198=CARTESIAN_POINT('Origin',(-1.04774906591047,-12.5000002980232,10.));
#1199=CARTESIAN_POINT('',(-1.40279681712855,-12.5000002980232,10.));
#1200=CARTESIAN_POINT('',(-0.550796186431086,-12.5000002980232,10.));
#1201=CARTESIAN_POINT('',(-1.40279681712855,-12.5000002980232,10.));
#1202=CARTESIAN_POINT('Origin',(-0.85334240749944,-13.3686907589436,10.));
#1203=CARTESIAN_POINT('',(-0.303887997870333,-14.2373812198639,10.));
#1204=CARTESIAN_POINT('',(-4.75802652542686,-7.19536356981366,10.));
#1205=CARTESIAN_POINT('',(-0.303887997870333,-14.2373812198639,10.));
#1206=CARTESIAN_POINT('Origin',(-0.303887997870333,-14.8686908185482,10.));
#1207=CARTESIAN_POINT('',(-0.303887997870333,-15.5000004172325,10.));
#1208=CARTESIAN_POINT('',(-0.303887997870333,-5.22277118454158,10.));
#1209=CARTESIAN_POINT('',(-0.303887997870333,-15.5000004172325,10.));
#1210=CARTESIAN_POINT('Origin',(-0.00204627693165094,-15.5000004172325,
10.));
#1211=CARTESIAN_POINT('',(-0.0279447919416786,-15.5000004172325,10.));
#1212=CARTESIAN_POINT('Origin',(-11.5889175378895,-5.56651886906633,9.5));
#1213=CARTESIAN_POINT('',(-11.5889175378895,-17.5665188690664,9.));
#1214=CARTESIAN_POINT('',(-11.5889175378895,-16.5665188690663,10.));
#1215=CARTESIAN_POINT('',(-11.5889175378895,-17.5665188690664,9.));
#1216=CARTESIAN_POINT('',(-21.1151969795184,-0.0665188690663332,10.));
#1217=CARTESIAN_POINT('Origin',(-11.5889175378895,-5.56651886906633,10.));
#1218=CARTESIAN_POINT('',(-21.9812223833028,0.433481130933666,9.));
#1219=CARTESIAN_POINT('',(-21.1151969795184,-0.0665188690663332,10.));
#1220=CARTESIAN_POINT('Origin',(-11.5889175378895,-5.56651886906633,9.));
#1221=CARTESIAN_POINT('Origin',(-5.82138042242062,-17.0665188690663,9.5));
#1222=CARTESIAN_POINT('',(11.4812309239861,-17.5665188690663,9.));
#1223=CARTESIAN_POINT('',(11.4812309239861,-16.5665188690663,10.));
#1224=CARTESIAN_POINT('',(11.4812309239861,-17.5665188690663,9.));
#1225=CARTESIAN_POINT('',(-5.82138042242062,-16.5665188690663,10.));
#1226=CARTESIAN_POINT('',(-5.82138042242062,-17.5665188690663,9.));
#1227=CARTESIAN_POINT('Origin',(11.4812309239861,-5.56651886906635,9.5));
#1228=CARTESIAN_POINT('',(21.8735357693994,0.433481130933654,9.));
#1229=CARTESIAN_POINT('',(21.0075103656149,-0.0665188690663458,10.));
#1230=CARTESIAN_POINT('',(21.8735357693994,0.433481130933654,9.));
#1231=CARTESIAN_POINT('Origin',(11.4812309239861,-5.56651886906635,10.));
#1232=CARTESIAN_POINT('Origin',(11.4812309239861,-5.56651886906635,9.));
#1233=CARTESIAN_POINT('Origin',(17.8358123703391,6.42702320501578,9.5));
#1234=CARTESIAN_POINT('',(10.3384615384616,20.4128157679964,9.));
#1235=CARTESIAN_POINT('',(9.47243613467712,19.9128157679964,10.));
#1236=CARTESIAN_POINT('',(10.3384615384616,20.4128157679964,9.));
#1237=CARTESIAN_POINT('',(17.4027996684469,6.17702320501578,10.));
#1238=CARTESIAN_POINT('',(18.2688250722313,6.67702320501578,9.));
#1239=CARTESIAN_POINT('Origin',(-0.0538433069517141,14.4128157679964,9.5));
#1240=CARTESIAN_POINT('',(-10.446148152365,20.4128157679964,9.));
#1241=CARTESIAN_POINT('',(-9.58012274858055,19.9128157679964,10.));
#1242=CARTESIAN_POINT('',(-10.446148152365,20.4128157679964,9.));
#1243=CARTESIAN_POINT('Origin',(-0.0538433069517141,14.4128157679964,10.));
#1244=CARTESIAN_POINT('Origin',(-0.0538433069517141,14.4128157679964,9.));
#1245=CARTESIAN_POINT('Origin',(-12.1759618687736,16.4166905235472,9.5));
#1246=CARTESIAN_POINT('',(-11.7429491668814,16.1666905235472,10.));
#1247=CARTESIAN_POINT('',(-12.6089745706658,16.6666905235472,9.));
#1248=CARTESIAN_POINT('Origin',(11.4812309239861,-5.56651886906635,0.));
#1249=CARTESIAN_POINT('',(11.4812309239861,-17.5665188690663,0.));
#1250=CARTESIAN_POINT('',(11.4812309239861,-17.5665188690663,0.));
#1251=CARTESIAN_POINT('',(21.8735357693994,0.433481130933654,0.));
#1252=CARTESIAN_POINT('Origin',(11.4812309239861,-5.56651886906635,0.));
#1253=CARTESIAN_POINT('',(21.8735357693994,0.433481130933654,0.));
#1254=CARTESIAN_POINT('Origin',(-11.5889175378895,-17.5665188690663,0.));
#1255=CARTESIAN_POINT('',(-11.5889175378895,-17.5665188690664,0.));
#1256=CARTESIAN_POINT('',(-11.5889175378895,-17.5665188690664,0.));
#1257=CARTESIAN_POINT('',(-11.5889175378895,-17.5665188690663,0.));
#1258=CARTESIAN_POINT('Origin',(-11.5889175378895,-5.56651886906633,0.));
#1259=CARTESIAN_POINT('',(-21.9812223833028,0.433481130933666,0.));
#1260=CARTESIAN_POINT('',(-21.9812223833028,0.433481130933666,0.));
#1261=CARTESIAN_POINT('Origin',(-11.5889175378895,-5.56651886906633,0.));
#1262=CARTESIAN_POINT('Origin',(-0.0538433069517064,4.42314844946504,10.));
#1263=CARTESIAN_POINT('',(-16.4453239984406,-6.09278351779779,10.));
#1264=CARTESIAN_POINT('Origin',(-10.4453239984406,-6.09278351779779,10.));
#1265=CARTESIAN_POINT('',(-11.0538433069517,12.0923076923077,10.));
#1266=CARTESIAN_POINT('Origin',(-0.0538433069517145,12.0923076923077,10.));
#1267=CARTESIAN_POINT('',(1.99916730539229,-5.99952417450989,10.));
#1268=CARTESIAN_POINT('Origin',(10.4991673053923,-5.99952417450988,10.));
#1269=CARTESIAN_POINT('Origin',(-10.4453239984406,-6.09278351779779,9.5));
#1270=CARTESIAN_POINT('',(-15.4453239984406,-6.09278351779779,9.));
#1271=CARTESIAN_POINT('',(-15.9453239984406,-6.09278351779779,9.5));
#1272=CARTESIAN_POINT('Origin',(-10.4453239984406,-6.09278351779779,9.));
#1273=CARTESIAN_POINT('Origin',(-10.4453239984406,-6.09278351779779,0.));
#1274=CARTESIAN_POINT('',(-15.4453239984406,-6.09278351779779,0.));
#1275=CARTESIAN_POINT('',(-15.4453239984406,-6.09278351779779,0.));
#1276=CARTESIAN_POINT('Origin',(-10.4453239984406,-6.09278351779779,0.));
#1277=CARTESIAN_POINT('Origin',(10.4991673053923,-5.99952417450988,9.5));
#1278=CARTESIAN_POINT('',(2.99916730539229,-5.99952417450988,9.));
#1279=CARTESIAN_POINT('',(2.49916730539229,-5.99952417450989,9.5));
#1280=CARTESIAN_POINT('Origin',(10.4991673053923,-5.99952417450988,9.));
#1281=CARTESIAN_POINT('Origin',(10.4991673053923,-5.99952417450988,0.));
#1282=CARTESIAN_POINT('',(2.99916730539229,-5.99952417450989,0.));
#1283=CARTESIAN_POINT('',(2.99916730539229,-5.99952417450989,0.));
#1284=CARTESIAN_POINT('Origin',(10.4991673053923,-5.99952417450988,0.));
#1285=CARTESIAN_POINT('Origin',(-0.0538433069517145,12.0923076923077,9.5));
#1286=CARTESIAN_POINT('',(-10.0538433069517,12.0923076923077,9.));
#1287=CARTESIAN_POINT('',(-10.5538433069517,12.0923076923077,9.5));
#1288=CARTESIAN_POINT('Origin',(-0.0538433069517145,12.0923076923077,9.));
#1289=CARTESIAN_POINT('Origin',(-0.0538433069517145,12.0923076923077,0.));
#1290=CARTESIAN_POINT('',(-10.0538433069517,12.0923076923077,0.));
#1291=CARTESIAN_POINT('',(-10.0538433069517,12.0923076923077,0.));
#1292=CARTESIAN_POINT('Origin',(-0.0538433069517145,12.0923076923077,0.));
#1293=CARTESIAN_POINT('Origin',(-10.446148152365,20.4128157679964,0.));
#1294=CARTESIAN_POINT('',(-10.446148152365,20.4128157679964,0.));
#1295=CARTESIAN_POINT('',(-10.446148152365,20.4128157679964,0.));
#1296=CARTESIAN_POINT('',(-10.446148152365,20.4128157679964,0.));
#1297=CARTESIAN_POINT('Origin',(-0.0538433069517141,14.4128157679964,0.));
#1298=CARTESIAN_POINT('',(10.3384615384616,20.4128157679964,0.));
#1299=CARTESIAN_POINT('',(10.3384615384616,20.4128157679964,0.));
#1300=CARTESIAN_POINT('Origin',(-0.0538433069517141,14.4128157679964,0.));
#1301=CARTESIAN_POINT('Origin',(21.8735357693994,0.433481130933655,0.));
#1302=CARTESIAN_POINT('',(21.8735357693994,0.433481130933655,0.));
#1303=CARTESIAN_POINT('Origin',(-0.0538433069517064,4.42314844946504,0.));
#1304=UNCERTAINTY_MEASURE_WITH_UNIT(LENGTH_MEASURE(0.01),#1308,
'DISTANCE_ACCURACY_VALUE',
'Maximum model space distance between geometric entities at asserted c
onnectivities');
#1305=UNCERTAINTY_MEASURE_WITH_UNIT(LENGTH_MEASURE(0.01),#1308,
'DISTANCE_ACCURACY_VALUE',
'Maximum model space distance between geometric entities at asserted c
onnectivities');
#1306=(
GEOMETRIC_REPRESENTATION_CONTEXT(3)
GLOBAL_UNCERTAINTY_ASSIGNED_CONTEXT((#1304))
GLOBAL_UNIT_ASSIGNED_CONTEXT((#1308,#1310,#1311))
REPRESENTATION_CONTEXT('','3D')
);
#1307=(
GEOMETRIC_REPRESENTATION_CONTEXT(3)
GLOBAL_UNCERTAINTY_ASSIGNED_CONTEXT((#1305))
GLOBAL_UNIT_ASSIGNED_CONTEXT((#1308,#1310,#1311))
REPRESENTATION_CONTEXT('','3D')
);
#1308=(
LENGTH_UNIT()
NAMED_UNIT(*)
SI_UNIT(.MILLI.,.METRE.)
);
#1309=(
LENGTH_UNIT()
NAMED_UNIT(*)
SI_UNIT($,.METRE.)
);
#1310=(
NAMED_UNIT(*)
PLANE_ANGLE_UNIT()
SI_UNIT($,.RADIAN.)
);
#1311=(
NAMED_UNIT(*)
SI_UNIT($,.STERADIAN.)
SOLID_ANGLE_UNIT()
);
#1312=SHAPE_DEFINITION_REPRESENTATION(#1313,#1314);
#1313=PRODUCT_DEFINITION_SHAPE('',$,#1316);
#1314=SHAPE_REPRESENTATION('',(#807),#1306);
#1315=PRODUCT_DEFINITION_CONTEXT('part definition',#1320,'design');
#1316=PRODUCT_DEFINITION('Uo Zylinder innen','Uo Zylinder innen v3',#1317,
#1315);
#1317=PRODUCT_DEFINITION_FORMATION('',$,#1322);
#1318=PRODUCT_RELATED_PRODUCT_CATEGORY('Uo Zylinder innen v3',
'Uo Zylinder innen v3',(#1322));
#1319=APPLICATION_PROTOCOL_DEFINITION('international standard',
'automotive_design',2009,#1320);
#1320=APPLICATION_CONTEXT(
'Core Data for Automotive Mechanical Design Process');
#1321=PRODUCT_CONTEXT('part definition',#1320,'mechanical');
#1322=PRODUCT('Uo Zylinder innen','Uo Zylinder innen v3',$,(#1321));
#1323=PRESENTATION_STYLE_ASSIGNMENT((#1324));
#1324=SURFACE_STYLE_USAGE(.BOTH.,#1325);
#1325=SURFACE_SIDE_STYLE('',(#1326));
#1326=SURFACE_STYLE_FILL_AREA(#1327);
#1327=FILL_AREA_STYLE('Stahl - satiniert',(#1328));
#1328=FILL_AREA_STYLE_COLOUR('Stahl - satiniert',#1329);
#1329=COLOUR_RGB('Stahl - satiniert',0.627450980392157,0.627450980392157,
0.627450980392157);
ENDSEC;
END-ISO-10303-21;
