ISO-10303-21;
HEADER;
/* Generated by software containing ST-Developer
 * from STEP Tools, Inc. (www.steptools.com) 
 */

FILE_DESCRIPTION(
/* description */ (''),
/* implementation_level */ '2;1');

FILE_NAME(
/* name */ 'fdm_zylinderstapel_d10_d20_d30_d40mm.step',
/* time_stamp */ '2026-07-27T16:27:55+02:00',
/* author */ (''),
/* organization */ (''),
/* preprocessor_version */ 'ST-DEVELOPER v20.1',
/* originating_system */ 'Autodesk Translation Framework v15.8.0.0',
/* authorisation */ '');

FILE_SCHEMA (('AUTOMOTIVE_DESIGN { 1 0 10303 214 3 1 1 }'));
ENDSEC;

DATA;
#10=MECHANICAL_DESIGN_GEOMETRIC_PRESENTATION_REPRESENTATION('',(#13),#1208);
#11=SHAPE_REPRESENTATION_RELATIONSHIP('SRR','None',#1215,#12);
#12=ADVANCED_BREP_SHAPE_REPRESENTATION('',(#14),#1207);
#13=STYLED_ITEM('',(#1224),#14);
#14=MANIFOLD_SOLID_BREP('K\X\F6rper1',#721);
#15=FACE_BOUND('',#128,.T.);
#16=FACE_BOUND('',#129,.T.);
#17=FACE_BOUND('',#130,.T.);
#18=FACE_BOUND('',#134,.T.);
#19=FACE_BOUND('',#138,.T.);
#20=FACE_BOUND('',#142,.T.);
#21=FACE_BOUND('',#144,.T.);
#22=CONICAL_SURFACE('',#761,15.,0.62024948598282);
#23=CONICAL_SURFACE('',#762,4.5,0.785398163397449);
#24=CONICAL_SURFACE('',#769,9.5,0.785398163397451);
#25=CONICAL_SURFACE('',#776,14.5,0.785398163397452);
#26=CONICAL_SURFACE('',#783,19.5,0.785398163397458);
#27=CONICAL_SURFACE('',#790,24.5,0.785398163397455);
#28=CIRCLE('',#759,15.);
#29=CIRCLE('',#760,15.);
#30=CIRCLE('',#763,4.);
#31=CIRCLE('',#764,5.);
#32=CIRCLE('',#765,5.);
#33=CIRCLE('',#767,5.);
#34=CIRCLE('',#770,9.);
#35=CIRCLE('',#771,10.);
#36=CIRCLE('',#772,10.);
#37=CIRCLE('',#774,10.);
#38=CIRCLE('',#777,14.);
#39=CIRCLE('',#778,15.);
#40=CIRCLE('',#779,15.);
#41=CIRCLE('',#781,15.);
#42=CIRCLE('',#784,19.);
#43=CIRCLE('',#785,20.);
#44=CIRCLE('',#786,20.);
#45=CIRCLE('',#788,20.);
#46=CIRCLE('',#791,24.);
#47=CIRCLE('',#792,25.);
#48=CIRCLE('',#793,25.);
#49=CIRCLE('',#795,25.);
#50=CYLINDRICAL_SURFACE('',#758,15.);
#51=CYLINDRICAL_SURFACE('',#766,5.);
#52=CYLINDRICAL_SURFACE('',#773,10.);
#53=CYLINDRICAL_SURFACE('',#780,15.);
#54=CYLINDRICAL_SURFACE('',#787,20.);
#55=CYLINDRICAL_SURFACE('',#794,25.);
#56=FACE_OUTER_BOUND('',#97,.T.);
#57=FACE_OUTER_BOUND('',#98,.T.);
#58=FACE_OUTER_BOUND('',#99,.T.);
#59=FACE_OUTER_BOUND('',#100,.T.);
#60=FACE_OUTER_BOUND('',#101,.T.);
#61=FACE_OUTER_BOUND('',#102,.T.);
#62=FACE_OUTER_BOUND('',#103,.T.);
#63=FACE_OUTER_BOUND('',#104,.T.);
#64=FACE_OUTER_BOUND('',#105,.T.);
#65=FACE_OUTER_BOUND('',#106,.T.);
#66=FACE_OUTER_BOUND('',#107,.T.);
#67=FACE_OUTER_BOUND('',#108,.T.);
#68=FACE_OUTER_BOUND('',#109,.T.);
#69=FACE_OUTER_BOUND('',#110,.T.);
#70=FACE_OUTER_BOUND('',#111,.T.);
#71=FACE_OUTER_BOUND('',#112,.T.);
#72=FACE_OUTER_BOUND('',#113,.T.);
#73=FACE_OUTER_BOUND('',#114,.T.);
#74=FACE_OUTER_BOUND('',#115,.T.);
#75=FACE_OUTER_BOUND('',#116,.T.);
#76=FACE_OUTER_BOUND('',#117,.T.);
#77=FACE_OUTER_BOUND('',#118,.T.);
#78=FACE_OUTER_BOUND('',#119,.T.);
#79=FACE_OUTER_BOUND('',#120,.T.);
#80=FACE_OUTER_BOUND('',#121,.T.);
#81=FACE_OUTER_BOUND('',#122,.T.);
#82=FACE_OUTER_BOUND('',#123,.T.);
#83=FACE_OUTER_BOUND('',#124,.T.);
#84=FACE_OUTER_BOUND('',#125,.T.);
#85=FACE_OUTER_BOUND('',#126,.T.);
#86=FACE_OUTER_BOUND('',#127,.T.);
#87=FACE_OUTER_BOUND('',#131,.T.);
#88=FACE_OUTER_BOUND('',#132,.T.);
#89=FACE_OUTER_BOUND('',#133,.T.);
#90=FACE_OUTER_BOUND('',#135,.T.);
#91=FACE_OUTER_BOUND('',#136,.T.);
#92=FACE_OUTER_BOUND('',#137,.T.);
#93=FACE_OUTER_BOUND('',#139,.T.);
#94=FACE_OUTER_BOUND('',#140,.T.);
#95=FACE_OUTER_BOUND('',#141,.T.);
#96=FACE_OUTER_BOUND('',#143,.T.);
#97=EDGE_LOOP('',(#457,#458,#459,#460,#461,#462,#463,#464,#465,#466,#467,
#468));
#98=EDGE_LOOP('',(#469,#470,#471,#472));
#99=EDGE_LOOP('',(#473,#474,#475,#476));
#100=EDGE_LOOP('',(#477,#478,#479,#480));
#101=EDGE_LOOP('',(#481,#482,#483,#484));
#102=EDGE_LOOP('',(#485,#486,#487,#488));
#103=EDGE_LOOP('',(#489,#490,#491,#492));
#104=EDGE_LOOP('',(#493,#494,#495,#496));
#105=EDGE_LOOP('',(#497,#498,#499,#500));
#106=EDGE_LOOP('',(#501,#502,#503,#504));
#107=EDGE_LOOP('',(#505,#506,#507,#508));
#108=EDGE_LOOP('',(#509,#510,#511,#512));
#109=EDGE_LOOP('',(#513,#514,#515,#516));
#110=EDGE_LOOP('',(#517,#518,#519,#520,#521,#522,#523,#524,#525));
#111=EDGE_LOOP('',(#526,#527,#528,#529));
#112=EDGE_LOOP('',(#530,#531,#532,#533));
#113=EDGE_LOOP('',(#534,#535,#536,#537));
#114=EDGE_LOOP('',(#538,#539,#540,#541));
#115=EDGE_LOOP('',(#542,#543,#544,#545));
#116=EDGE_LOOP('',(#546,#547,#548,#549));
#117=EDGE_LOOP('',(#550,#551,#552,#553));
#118=EDGE_LOOP('',(#554,#555,#556,#557));
#119=EDGE_LOOP('',(#558,#559,#560,#561));
#120=EDGE_LOOP('',(#562,#563,#564,#565));
#121=EDGE_LOOP('',(#566,#567,#568));
#122=EDGE_LOOP('',(#569,#570,#571,#572,#573));
#123=EDGE_LOOP('',(#574,#575,#576,#577,#578));
#124=EDGE_LOOP('',(#579));
#125=EDGE_LOOP('',(#580,#581,#582,#583,#584));
#126=EDGE_LOOP('',(#585,#586,#587,#588,#589));
#127=EDGE_LOOP('',(#590));
#128=EDGE_LOOP('',(#591,#592,#593,#594,#595,#596,#597,#598,#599,#600,#601,
#602));
#129=EDGE_LOOP('',(#603,#604,#605,#606,#607,#608,#609,#610,#611));
#130=EDGE_LOOP('',(#612));
#131=EDGE_LOOP('',(#613,#614,#615,#616,#617));
#132=EDGE_LOOP('',(#618,#619,#620,#621,#622));
#133=EDGE_LOOP('',(#623));
#134=EDGE_LOOP('',(#624));
#135=EDGE_LOOP('',(#625,#626,#627,#628,#629));
#136=EDGE_LOOP('',(#630,#631,#632,#633,#634));
#137=EDGE_LOOP('',(#635));
#138=EDGE_LOOP('',(#636));
#139=EDGE_LOOP('',(#637,#638,#639,#640,#641));
#140=EDGE_LOOP('',(#642,#643,#644,#645,#646));
#141=EDGE_LOOP('',(#647));
#142=EDGE_LOOP('',(#648));
#143=EDGE_LOOP('',(#649));
#144=EDGE_LOOP('',(#650));
#145=LINE('',#1005,#220);
#146=LINE('',#1007,#221);
#147=LINE('',#1009,#222);
#148=LINE('',#1011,#223);
#149=LINE('',#1013,#224);
#150=LINE('',#1015,#225);
#151=LINE('',#1017,#226);
#152=LINE('',#1019,#227);
#153=LINE('',#1021,#228);
#154=LINE('',#1023,#229);
#155=LINE('',#1025,#230);
#156=LINE('',#1026,#231);
#157=LINE('',#1029,#232);
#158=LINE('',#1031,#233);
#159=LINE('',#1032,#234);
#160=LINE('',#1035,#235);
#161=LINE('',#1036,#236);
#162=LINE('',#1039,#237);
#163=LINE('',#1040,#238);
#164=LINE('',#1043,#239);
#165=LINE('',#1044,#240);
#166=LINE('',#1047,#241);
#167=LINE('',#1048,#242);
#168=LINE('',#1051,#243);
#169=LINE('',#1052,#244);
#170=LINE('',#1055,#245);
#171=LINE('',#1056,#246);
#172=LINE('',#1059,#247);
#173=LINE('',#1060,#248);
#174=LINE('',#1063,#249);
#175=LINE('',#1064,#250);
#176=LINE('',#1067,#251);
#177=LINE('',#1068,#252);
#178=LINE('',#1071,#253);
#179=LINE('',#1072,#254);
#180=LINE('',#1074,#255);
#181=LINE('',#1078,#256);
#182=LINE('',#1080,#257);
#183=LINE('',#1082,#258);
#184=LINE('',#1084,#259);
#185=LINE('',#1086,#260);
#186=LINE('',#1088,#261);
#187=LINE('',#1090,#262);
#188=LINE('',#1092,#263);
#189=LINE('',#1093,#264);
#190=LINE('',#1096,#265);
#191=LINE('',#1098,#266);
#192=LINE('',#1099,#267);
#193=LINE('',#1102,#268);
#194=LINE('',#1103,#269);
#195=LINE('',#1106,#270);
#196=LINE('',#1107,#271);
#197=LINE('',#1110,#272);
#198=LINE('',#1111,#273);
#199=LINE('',#1114,#274);
#200=LINE('',#1115,#275);
#201=LINE('',#1118,#276);
#202=LINE('',#1119,#277);
#203=LINE('',#1122,#278);
#204=LINE('',#1123,#279);
#205=LINE('',#1126,#280);
#206=LINE('',#1127,#281);
#207=LINE('',#1129,#282);
#208=LINE('',#1134,#283);
#209=LINE('',#1138,#284);
#210=LINE('',#1143,#285);
#211=LINE('',#1149,#286);
#212=LINE('',#1156,#287);
#213=LINE('',#1162,#288);
#214=LINE('',#1169,#289);
#215=LINE('',#1175,#290);
#216=LINE('',#1182,#291);
#217=LINE('',#1188,#292);
#218=LINE('',#1195,#293);
#219=LINE('',#1201,#294);
#220=VECTOR('',#802,10.);
#221=VECTOR('',#803,10.);
#222=VECTOR('',#804,10.);
#223=VECTOR('',#805,10.);
#224=VECTOR('',#806,10.);
#225=VECTOR('',#807,10.);
#226=VECTOR('',#808,10.);
#227=VECTOR('',#809,10.);
#228=VECTOR('',#810,10.);
#229=VECTOR('',#811,10.);
#230=VECTOR('',#812,10.);
#231=VECTOR('',#813,10.);
#232=VECTOR('',#816,10.);
#233=VECTOR('',#817,10.);
#234=VECTOR('',#818,10.);
#235=VECTOR('',#821,10.);
#236=VECTOR('',#822,10.);
#237=VECTOR('',#825,10.);
#238=VECTOR('',#826,10.);
#239=VECTOR('',#829,10.);
#240=VECTOR('',#830,10.);
#241=VECTOR('',#833,10.);
#242=VECTOR('',#834,10.);
#243=VECTOR('',#837,10.);
#244=VECTOR('',#838,10.);
#245=VECTOR('',#841,10.);
#246=VECTOR('',#842,10.);
#247=VECTOR('',#845,10.);
#248=VECTOR('',#846,10.);
#249=VECTOR('',#849,10.);
#250=VECTOR('',#850,10.);
#251=VECTOR('',#853,10.);
#252=VECTOR('',#854,10.);
#253=VECTOR('',#857,10.);
#254=VECTOR('',#858,10.);
#255=VECTOR('',#861,10.);
#256=VECTOR('',#864,10.);
#257=VECTOR('',#865,10.);
#258=VECTOR('',#866,10.);
#259=VECTOR('',#867,10.);
#260=VECTOR('',#868,10.);
#261=VECTOR('',#869,10.);
#262=VECTOR('',#870,10.);
#263=VECTOR('',#871,10.);
#264=VECTOR('',#872,10.);
#265=VECTOR('',#875,10.);
#266=VECTOR('',#876,10.);
#267=VECTOR('',#877,10.);
#268=VECTOR('',#880,10.);
#269=VECTOR('',#881,10.);
#270=VECTOR('',#884,10.);
#271=VECTOR('',#885,10.);
#272=VECTOR('',#888,10.);
#273=VECTOR('',#889,10.);
#274=VECTOR('',#892,10.);
#275=VECTOR('',#893,10.);
#276=VECTOR('',#896,10.);
#277=VECTOR('',#897,10.);
#278=VECTOR('',#900,10.);
#279=VECTOR('',#901,10.);
#280=VECTOR('',#904,10.);
#281=VECTOR('',#905,10.);
#282=VECTOR('',#908,10.);
#283=VECTOR('',#913,15.);
#284=VECTOR('',#918,15.);
#285=VECTOR('',#923,4.5);
#286=VECTOR('',#930,5.);
#287=VECTOR('',#939,9.50000000000001);
#288=VECTOR('',#946,10.);
#289=VECTOR('',#955,14.5);
#290=VECTOR('',#962,15.);
#291=VECTOR('',#971,19.5000000000001);
#292=VECTOR('',#978,20.);
#293=VECTOR('',#987,24.5000000000001);
#294=VECTOR('',#994,25.);
#295=VERTEX_POINT('',#1003);
#296=VERTEX_POINT('',#1004);
#297=VERTEX_POINT('',#1006);
#298=VERTEX_POINT('',#1008);
#299=VERTEX_POINT('',#1010);
#300=VERTEX_POINT('',#1012);
#301=VERTEX_POINT('',#1014);
#302=VERTEX_POINT('',#1016);
#303=VERTEX_POINT('',#1018);
#304=VERTEX_POINT('',#1020);
#305=VERTEX_POINT('',#1022);
#306=VERTEX_POINT('',#1024);
#307=VERTEX_POINT('',#1028);
#308=VERTEX_POINT('',#1030);
#309=VERTEX_POINT('',#1034);
#310=VERTEX_POINT('',#1038);
#311=VERTEX_POINT('',#1042);
#312=VERTEX_POINT('',#1046);
#313=VERTEX_POINT('',#1050);
#314=VERTEX_POINT('',#1054);
#315=VERTEX_POINT('',#1058);
#316=VERTEX_POINT('',#1062);
#317=VERTEX_POINT('',#1066);
#318=VERTEX_POINT('',#1070);
#319=VERTEX_POINT('',#1076);
#320=VERTEX_POINT('',#1077);
#321=VERTEX_POINT('',#1079);
#322=VERTEX_POINT('',#1081);
#323=VERTEX_POINT('',#1083);
#324=VERTEX_POINT('',#1085);
#325=VERTEX_POINT('',#1087);
#326=VERTEX_POINT('',#1089);
#327=VERTEX_POINT('',#1091);
#328=VERTEX_POINT('',#1095);
#329=VERTEX_POINT('',#1097);
#330=VERTEX_POINT('',#1101);
#331=VERTEX_POINT('',#1105);
#332=VERTEX_POINT('',#1109);
#333=VERTEX_POINT('',#1113);
#334=VERTEX_POINT('',#1117);
#335=VERTEX_POINT('',#1121);
#336=VERTEX_POINT('',#1125);
#337=VERTEX_POINT('',#1131);
#338=VERTEX_POINT('',#1133);
#339=VERTEX_POINT('',#1137);
#340=VERTEX_POINT('',#1140);
#341=VERTEX_POINT('',#1142);
#342=VERTEX_POINT('',#1144);
#343=VERTEX_POINT('',#1148);
#344=VERTEX_POINT('',#1153);
#345=VERTEX_POINT('',#1155);
#346=VERTEX_POINT('',#1157);
#347=VERTEX_POINT('',#1161);
#348=VERTEX_POINT('',#1166);
#349=VERTEX_POINT('',#1168);
#350=VERTEX_POINT('',#1170);
#351=VERTEX_POINT('',#1174);
#352=VERTEX_POINT('',#1179);
#353=VERTEX_POINT('',#1181);
#354=VERTEX_POINT('',#1183);
#355=VERTEX_POINT('',#1187);
#356=VERTEX_POINT('',#1192);
#357=VERTEX_POINT('',#1194);
#358=VERTEX_POINT('',#1196);
#359=VERTEX_POINT('',#1200);
#360=EDGE_CURVE('',#295,#296,#145,.T.);
#361=EDGE_CURVE('',#297,#295,#146,.T.);
#362=EDGE_CURVE('',#298,#297,#147,.T.);
#363=EDGE_CURVE('',#299,#298,#148,.T.);
#364=EDGE_CURVE('',#300,#299,#149,.T.);
#365=EDGE_CURVE('',#301,#300,#150,.T.);
#366=EDGE_CURVE('',#302,#301,#151,.T.);
#367=EDGE_CURVE('',#303,#302,#152,.T.);
#368=EDGE_CURVE('',#304,#303,#153,.T.);
#369=EDGE_CURVE('',#305,#304,#154,.T.);
#370=EDGE_CURVE('',#306,#305,#155,.T.);
#371=EDGE_CURVE('',#296,#306,#156,.T.);
#372=EDGE_CURVE('',#296,#307,#157,.T.);
#373=EDGE_CURVE('',#308,#307,#158,.T.);
#374=EDGE_CURVE('',#295,#308,#159,.T.);
#375=EDGE_CURVE('',#309,#308,#160,.T.);
#376=EDGE_CURVE('',#297,#309,#161,.T.);
#377=EDGE_CURVE('',#310,#309,#162,.T.);
#378=EDGE_CURVE('',#298,#310,#163,.T.);
#379=EDGE_CURVE('',#311,#310,#164,.T.);
#380=EDGE_CURVE('',#299,#311,#165,.T.);
#381=EDGE_CURVE('',#312,#311,#166,.T.);
#382=EDGE_CURVE('',#300,#312,#167,.T.);
#383=EDGE_CURVE('',#313,#312,#168,.T.);
#384=EDGE_CURVE('',#301,#313,#169,.T.);
#385=EDGE_CURVE('',#314,#313,#170,.T.);
#386=EDGE_CURVE('',#302,#314,#171,.T.);
#387=EDGE_CURVE('',#315,#314,#172,.T.);
#388=EDGE_CURVE('',#303,#315,#173,.T.);
#389=EDGE_CURVE('',#316,#315,#174,.T.);
#390=EDGE_CURVE('',#304,#316,#175,.T.);
#391=EDGE_CURVE('',#317,#316,#176,.T.);
#392=EDGE_CURVE('',#305,#317,#177,.T.);
#393=EDGE_CURVE('',#318,#317,#178,.T.);
#394=EDGE_CURVE('',#306,#318,#179,.T.);
#395=EDGE_CURVE('',#307,#318,#180,.T.);
#396=EDGE_CURVE('',#319,#320,#181,.T.);
#397=EDGE_CURVE('',#321,#319,#182,.T.);
#398=EDGE_CURVE('',#322,#321,#183,.T.);
#399=EDGE_CURVE('',#323,#322,#184,.T.);
#400=EDGE_CURVE('',#324,#323,#185,.T.);
#401=EDGE_CURVE('',#325,#324,#186,.T.);
#402=EDGE_CURVE('',#326,#325,#187,.T.);
#403=EDGE_CURVE('',#327,#326,#188,.T.);
#404=EDGE_CURVE('',#320,#327,#189,.T.);
#405=EDGE_CURVE('',#320,#328,#190,.T.);
#406=EDGE_CURVE('',#329,#328,#191,.T.);
#407=EDGE_CURVE('',#319,#329,#192,.T.);
#408=EDGE_CURVE('',#330,#329,#193,.T.);
#409=EDGE_CURVE('',#321,#330,#194,.T.);
#410=EDGE_CURVE('',#331,#330,#195,.T.);
#411=EDGE_CURVE('',#322,#331,#196,.T.);
#412=EDGE_CURVE('',#332,#331,#197,.T.);
#413=EDGE_CURVE('',#323,#332,#198,.T.);
#414=EDGE_CURVE('',#333,#332,#199,.T.);
#415=EDGE_CURVE('',#324,#333,#200,.T.);
#416=EDGE_CURVE('',#334,#333,#201,.T.);
#417=EDGE_CURVE('',#325,#334,#202,.T.);
#418=EDGE_CURVE('',#335,#334,#203,.T.);
#419=EDGE_CURVE('',#326,#335,#204,.T.);
#420=EDGE_CURVE('',#336,#335,#205,.T.);
#421=EDGE_CURVE('',#327,#336,#206,.T.);
#422=EDGE_CURVE('',#328,#336,#207,.T.);
#423=EDGE_CURVE('',#337,#337,#28,.T.);
#424=EDGE_CURVE('',#337,#338,#208,.T.);
#425=EDGE_CURVE('',#338,#338,#29,.T.);
#426=EDGE_CURVE('',#338,#339,#209,.T.);
#427=EDGE_CURVE('',#340,#340,#30,.T.);
#428=EDGE_CURVE('',#340,#341,#210,.T.);
#429=EDGE_CURVE('',#341,#342,#31,.T.);
#430=EDGE_CURVE('',#342,#341,#32,.T.);
#431=EDGE_CURVE('',#342,#343,#211,.T.);
#432=EDGE_CURVE('',#343,#343,#33,.T.);
#433=EDGE_CURVE('',#344,#344,#34,.T.);
#434=EDGE_CURVE('',#344,#345,#212,.T.);
#435=EDGE_CURVE('',#345,#346,#35,.T.);
#436=EDGE_CURVE('',#346,#345,#36,.T.);
#437=EDGE_CURVE('',#346,#347,#213,.T.);
#438=EDGE_CURVE('',#347,#347,#37,.T.);
#439=EDGE_CURVE('',#348,#348,#38,.T.);
#440=EDGE_CURVE('',#348,#349,#214,.T.);
#441=EDGE_CURVE('',#349,#350,#39,.T.);
#442=EDGE_CURVE('',#350,#349,#40,.T.);
#443=EDGE_CURVE('',#350,#351,#215,.T.);
#444=EDGE_CURVE('',#351,#351,#41,.T.);
#445=EDGE_CURVE('',#352,#352,#42,.T.);
#446=EDGE_CURVE('',#352,#353,#216,.T.);
#447=EDGE_CURVE('',#353,#354,#43,.T.);
#448=EDGE_CURVE('',#354,#353,#44,.T.);
#449=EDGE_CURVE('',#354,#355,#217,.T.);
#450=EDGE_CURVE('',#355,#355,#45,.T.);
#451=EDGE_CURVE('',#356,#356,#46,.T.);
#452=EDGE_CURVE('',#356,#357,#218,.T.);
#453=EDGE_CURVE('',#357,#358,#47,.T.);
#454=EDGE_CURVE('',#358,#357,#48,.T.);
#455=EDGE_CURVE('',#358,#359,#219,.T.);
#456=EDGE_CURVE('',#359,#359,#49,.T.);
#457=ORIENTED_EDGE('',*,*,#360,.F.);
#458=ORIENTED_EDGE('',*,*,#361,.F.);
#459=ORIENTED_EDGE('',*,*,#362,.F.);
#460=ORIENTED_EDGE('',*,*,#363,.F.);
#461=ORIENTED_EDGE('',*,*,#364,.F.);
#462=ORIENTED_EDGE('',*,*,#365,.F.);
#463=ORIENTED_EDGE('',*,*,#366,.F.);
#464=ORIENTED_EDGE('',*,*,#367,.F.);
#465=ORIENTED_EDGE('',*,*,#368,.F.);
#466=ORIENTED_EDGE('',*,*,#369,.F.);
#467=ORIENTED_EDGE('',*,*,#370,.F.);
#468=ORIENTED_EDGE('',*,*,#371,.F.);
#469=ORIENTED_EDGE('',*,*,#360,.T.);
#470=ORIENTED_EDGE('',*,*,#372,.T.);
#471=ORIENTED_EDGE('',*,*,#373,.F.);
#472=ORIENTED_EDGE('',*,*,#374,.F.);
#473=ORIENTED_EDGE('',*,*,#361,.T.);
#474=ORIENTED_EDGE('',*,*,#374,.T.);
#475=ORIENTED_EDGE('',*,*,#375,.F.);
#476=ORIENTED_EDGE('',*,*,#376,.F.);
#477=ORIENTED_EDGE('',*,*,#362,.T.);
#478=ORIENTED_EDGE('',*,*,#376,.T.);
#479=ORIENTED_EDGE('',*,*,#377,.F.);
#480=ORIENTED_EDGE('',*,*,#378,.F.);
#481=ORIENTED_EDGE('',*,*,#363,.T.);
#482=ORIENTED_EDGE('',*,*,#378,.T.);
#483=ORIENTED_EDGE('',*,*,#379,.F.);
#484=ORIENTED_EDGE('',*,*,#380,.F.);
#485=ORIENTED_EDGE('',*,*,#364,.T.);
#486=ORIENTED_EDGE('',*,*,#380,.T.);
#487=ORIENTED_EDGE('',*,*,#381,.F.);
#488=ORIENTED_EDGE('',*,*,#382,.F.);
#489=ORIENTED_EDGE('',*,*,#365,.T.);
#490=ORIENTED_EDGE('',*,*,#382,.T.);
#491=ORIENTED_EDGE('',*,*,#383,.F.);
#492=ORIENTED_EDGE('',*,*,#384,.F.);
#493=ORIENTED_EDGE('',*,*,#366,.T.);
#494=ORIENTED_EDGE('',*,*,#384,.T.);
#495=ORIENTED_EDGE('',*,*,#385,.F.);
#496=ORIENTED_EDGE('',*,*,#386,.F.);
#497=ORIENTED_EDGE('',*,*,#367,.T.);
#498=ORIENTED_EDGE('',*,*,#386,.T.);
#499=ORIENTED_EDGE('',*,*,#387,.F.);
#500=ORIENTED_EDGE('',*,*,#388,.F.);
#501=ORIENTED_EDGE('',*,*,#368,.T.);
#502=ORIENTED_EDGE('',*,*,#388,.T.);
#503=ORIENTED_EDGE('',*,*,#389,.F.);
#504=ORIENTED_EDGE('',*,*,#390,.F.);
#505=ORIENTED_EDGE('',*,*,#369,.T.);
#506=ORIENTED_EDGE('',*,*,#390,.T.);
#507=ORIENTED_EDGE('',*,*,#391,.F.);
#508=ORIENTED_EDGE('',*,*,#392,.F.);
#509=ORIENTED_EDGE('',*,*,#370,.T.);
#510=ORIENTED_EDGE('',*,*,#392,.T.);
#511=ORIENTED_EDGE('',*,*,#393,.F.);
#512=ORIENTED_EDGE('',*,*,#394,.F.);
#513=ORIENTED_EDGE('',*,*,#371,.T.);
#514=ORIENTED_EDGE('',*,*,#394,.T.);
#515=ORIENTED_EDGE('',*,*,#395,.F.);
#516=ORIENTED_EDGE('',*,*,#372,.F.);
#517=ORIENTED_EDGE('',*,*,#396,.F.);
#518=ORIENTED_EDGE('',*,*,#397,.F.);
#519=ORIENTED_EDGE('',*,*,#398,.F.);
#520=ORIENTED_EDGE('',*,*,#399,.F.);
#521=ORIENTED_EDGE('',*,*,#400,.F.);
#522=ORIENTED_EDGE('',*,*,#401,.F.);
#523=ORIENTED_EDGE('',*,*,#402,.F.);
#524=ORIENTED_EDGE('',*,*,#403,.F.);
#525=ORIENTED_EDGE('',*,*,#404,.F.);
#526=ORIENTED_EDGE('',*,*,#396,.T.);
#527=ORIENTED_EDGE('',*,*,#405,.T.);
#528=ORIENTED_EDGE('',*,*,#406,.F.);
#529=ORIENTED_EDGE('',*,*,#407,.F.);
#530=ORIENTED_EDGE('',*,*,#397,.T.);
#531=ORIENTED_EDGE('',*,*,#407,.T.);
#532=ORIENTED_EDGE('',*,*,#408,.F.);
#533=ORIENTED_EDGE('',*,*,#409,.F.);
#534=ORIENTED_EDGE('',*,*,#398,.T.);
#535=ORIENTED_EDGE('',*,*,#409,.T.);
#536=ORIENTED_EDGE('',*,*,#410,.F.);
#537=ORIENTED_EDGE('',*,*,#411,.F.);
#538=ORIENTED_EDGE('',*,*,#399,.T.);
#539=ORIENTED_EDGE('',*,*,#411,.T.);
#540=ORIENTED_EDGE('',*,*,#412,.F.);
#541=ORIENTED_EDGE('',*,*,#413,.F.);
#542=ORIENTED_EDGE('',*,*,#400,.T.);
#543=ORIENTED_EDGE('',*,*,#413,.T.);
#544=ORIENTED_EDGE('',*,*,#414,.F.);
#545=ORIENTED_EDGE('',*,*,#415,.F.);
#546=ORIENTED_EDGE('',*,*,#401,.T.);
#547=ORIENTED_EDGE('',*,*,#415,.T.);
#548=ORIENTED_EDGE('',*,*,#416,.F.);
#549=ORIENTED_EDGE('',*,*,#417,.F.);
#550=ORIENTED_EDGE('',*,*,#402,.T.);
#551=ORIENTED_EDGE('',*,*,#417,.T.);
#552=ORIENTED_EDGE('',*,*,#418,.F.);
#553=ORIENTED_EDGE('',*,*,#419,.F.);
#554=ORIENTED_EDGE('',*,*,#403,.T.);
#555=ORIENTED_EDGE('',*,*,#419,.T.);
#556=ORIENTED_EDGE('',*,*,#420,.F.);
#557=ORIENTED_EDGE('',*,*,#421,.F.);
#558=ORIENTED_EDGE('',*,*,#404,.T.);
#559=ORIENTED_EDGE('',*,*,#421,.T.);
#560=ORIENTED_EDGE('',*,*,#422,.F.);
#561=ORIENTED_EDGE('',*,*,#405,.F.);
#562=ORIENTED_EDGE('',*,*,#423,.F.);
#563=ORIENTED_EDGE('',*,*,#424,.T.);
#564=ORIENTED_EDGE('',*,*,#425,.T.);
#565=ORIENTED_EDGE('',*,*,#424,.F.);
#566=ORIENTED_EDGE('',*,*,#425,.F.);
#567=ORIENTED_EDGE('',*,*,#426,.T.);
#568=ORIENTED_EDGE('',*,*,#426,.F.);
#569=ORIENTED_EDGE('',*,*,#427,.T.);
#570=ORIENTED_EDGE('',*,*,#428,.T.);
#571=ORIENTED_EDGE('',*,*,#429,.T.);
#572=ORIENTED_EDGE('',*,*,#430,.T.);
#573=ORIENTED_EDGE('',*,*,#428,.F.);
#574=ORIENTED_EDGE('',*,*,#429,.F.);
#575=ORIENTED_EDGE('',*,*,#430,.F.);
#576=ORIENTED_EDGE('',*,*,#431,.T.);
#577=ORIENTED_EDGE('',*,*,#432,.T.);
#578=ORIENTED_EDGE('',*,*,#431,.F.);
#579=ORIENTED_EDGE('',*,*,#427,.F.);
#580=ORIENTED_EDGE('',*,*,#433,.T.);
#581=ORIENTED_EDGE('',*,*,#434,.T.);
#582=ORIENTED_EDGE('',*,*,#435,.T.);
#583=ORIENTED_EDGE('',*,*,#436,.T.);
#584=ORIENTED_EDGE('',*,*,#434,.F.);
#585=ORIENTED_EDGE('',*,*,#435,.F.);
#586=ORIENTED_EDGE('',*,*,#436,.F.);
#587=ORIENTED_EDGE('',*,*,#437,.T.);
#588=ORIENTED_EDGE('',*,*,#438,.T.);
#589=ORIENTED_EDGE('',*,*,#437,.F.);
#590=ORIENTED_EDGE('',*,*,#433,.F.);
#591=ORIENTED_EDGE('',*,*,#373,.T.);
#592=ORIENTED_EDGE('',*,*,#395,.T.);
#593=ORIENTED_EDGE('',*,*,#393,.T.);
#594=ORIENTED_EDGE('',*,*,#391,.T.);
#595=ORIENTED_EDGE('',*,*,#389,.T.);
#596=ORIENTED_EDGE('',*,*,#387,.T.);
#597=ORIENTED_EDGE('',*,*,#385,.T.);
#598=ORIENTED_EDGE('',*,*,#383,.T.);
#599=ORIENTED_EDGE('',*,*,#381,.T.);
#600=ORIENTED_EDGE('',*,*,#379,.T.);
#601=ORIENTED_EDGE('',*,*,#377,.T.);
#602=ORIENTED_EDGE('',*,*,#375,.T.);
#603=ORIENTED_EDGE('',*,*,#406,.T.);
#604=ORIENTED_EDGE('',*,*,#422,.T.);
#605=ORIENTED_EDGE('',*,*,#420,.T.);
#606=ORIENTED_EDGE('',*,*,#418,.T.);
#607=ORIENTED_EDGE('',*,*,#416,.T.);
#608=ORIENTED_EDGE('',*,*,#414,.T.);
#609=ORIENTED_EDGE('',*,*,#412,.T.);
#610=ORIENTED_EDGE('',*,*,#410,.T.);
#611=ORIENTED_EDGE('',*,*,#408,.T.);
#612=ORIENTED_EDGE('',*,*,#432,.F.);
#613=ORIENTED_EDGE('',*,*,#439,.T.);
#614=ORIENTED_EDGE('',*,*,#440,.T.);
#615=ORIENTED_EDGE('',*,*,#441,.T.);
#616=ORIENTED_EDGE('',*,*,#442,.T.);
#617=ORIENTED_EDGE('',*,*,#440,.F.);
#618=ORIENTED_EDGE('',*,*,#441,.F.);
#619=ORIENTED_EDGE('',*,*,#442,.F.);
#620=ORIENTED_EDGE('',*,*,#443,.T.);
#621=ORIENTED_EDGE('',*,*,#444,.T.);
#622=ORIENTED_EDGE('',*,*,#443,.F.);
#623=ORIENTED_EDGE('',*,*,#439,.F.);
#624=ORIENTED_EDGE('',*,*,#438,.F.);
#625=ORIENTED_EDGE('',*,*,#445,.T.);
#626=ORIENTED_EDGE('',*,*,#446,.T.);
#627=ORIENTED_EDGE('',*,*,#447,.T.);
#628=ORIENTED_EDGE('',*,*,#448,.T.);
#629=ORIENTED_EDGE('',*,*,#446,.F.);
#630=ORIENTED_EDGE('',*,*,#447,.F.);
#631=ORIENTED_EDGE('',*,*,#448,.F.);
#632=ORIENTED_EDGE('',*,*,#449,.T.);
#633=ORIENTED_EDGE('',*,*,#450,.T.);
#634=ORIENTED_EDGE('',*,*,#449,.F.);
#635=ORIENTED_EDGE('',*,*,#445,.F.);
#636=ORIENTED_EDGE('',*,*,#444,.F.);
#637=ORIENTED_EDGE('',*,*,#451,.T.);
#638=ORIENTED_EDGE('',*,*,#452,.T.);
#639=ORIENTED_EDGE('',*,*,#453,.T.);
#640=ORIENTED_EDGE('',*,*,#454,.T.);
#641=ORIENTED_EDGE('',*,*,#452,.F.);
#642=ORIENTED_EDGE('',*,*,#453,.F.);
#643=ORIENTED_EDGE('',*,*,#454,.F.);
#644=ORIENTED_EDGE('',*,*,#455,.T.);
#645=ORIENTED_EDGE('',*,*,#456,.T.);
#646=ORIENTED_EDGE('',*,*,#455,.F.);
#647=ORIENTED_EDGE('',*,*,#451,.F.);
#648=ORIENTED_EDGE('',*,*,#450,.F.);
#649=ORIENTED_EDGE('',*,*,#456,.F.);
#650=ORIENTED_EDGE('',*,*,#423,.T.);
#651=PLANE('',#735);
#652=PLANE('',#736);
#653=PLANE('',#737);
#654=PLANE('',#738);
#655=PLANE('',#739);
#656=PLANE('',#740);
#657=PLANE('',#741);
#658=PLANE('',#742);
#659=PLANE('',#743);
#660=PLANE('',#744);
#661=PLANE('',#745);
#662=PLANE('',#746);
#663=PLANE('',#747);
#664=PLANE('',#748);
#665=PLANE('',#749);
#666=PLANE('',#750);
#667=PLANE('',#751);
#668=PLANE('',#752);
#669=PLANE('',#753);
#670=PLANE('',#754);
#671=PLANE('',#755);
#672=PLANE('',#756);
#673=PLANE('',#757);
#674=PLANE('',#768);
#675=PLANE('',#775);
#676=PLANE('',#782);
#677=PLANE('',#789);
#678=PLANE('',#796);
#679=PLANE('',#797);
#680=ADVANCED_FACE('',(#56),#651,.T.);
#681=ADVANCED_FACE('',(#57),#652,.T.);
#682=ADVANCED_FACE('',(#58),#653,.T.);
#683=ADVANCED_FACE('',(#59),#654,.T.);
#684=ADVANCED_FACE('',(#60),#655,.T.);
#685=ADVANCED_FACE('',(#61),#656,.T.);
#686=ADVANCED_FACE('',(#62),#657,.T.);
#687=ADVANCED_FACE('',(#63),#658,.T.);
#688=ADVANCED_FACE('',(#64),#659,.T.);
#689=ADVANCED_FACE('',(#65),#660,.T.);
#690=ADVANCED_FACE('',(#66),#661,.T.);
#691=ADVANCED_FACE('',(#67),#662,.T.);
#692=ADVANCED_FACE('',(#68),#663,.T.);
#693=ADVANCED_FACE('',(#69),#664,.T.);
#694=ADVANCED_FACE('',(#70),#665,.T.);
#695=ADVANCED_FACE('',(#71),#666,.T.);
#696=ADVANCED_FACE('',(#72),#667,.T.);
#697=ADVANCED_FACE('',(#73),#668,.T.);
#698=ADVANCED_FACE('',(#74),#669,.T.);
#699=ADVANCED_FACE('',(#75),#670,.T.);
#700=ADVANCED_FACE('',(#76),#671,.T.);
#701=ADVANCED_FACE('',(#77),#672,.T.);
#702=ADVANCED_FACE('',(#78),#673,.T.);
#703=ADVANCED_FACE('',(#79),#50,.F.);
#704=ADVANCED_FACE('',(#80),#22,.F.);
#705=ADVANCED_FACE('',(#81),#23,.T.);
#706=ADVANCED_FACE('',(#82),#51,.T.);
#707=ADVANCED_FACE('',(#83),#674,.T.);
#708=ADVANCED_FACE('',(#84),#24,.T.);
#709=ADVANCED_FACE('',(#85),#52,.T.);
#710=ADVANCED_FACE('',(#86,#15,#16,#17),#675,.T.);
#711=ADVANCED_FACE('',(#87),#25,.T.);
#712=ADVANCED_FACE('',(#88),#53,.T.);
#713=ADVANCED_FACE('',(#89,#18),#676,.T.);
#714=ADVANCED_FACE('',(#90),#26,.T.);
#715=ADVANCED_FACE('',(#91),#54,.T.);
#716=ADVANCED_FACE('',(#92,#19),#677,.T.);
#717=ADVANCED_FACE('',(#93),#27,.T.);
#718=ADVANCED_FACE('',(#94),#55,.T.);
#719=ADVANCED_FACE('',(#95,#20),#678,.T.);
#720=ADVANCED_FACE('',(#96,#21),#679,.T.);
#721=CLOSED_SHELL('',(#680,#681,#682,#683,#684,#685,#686,#687,#688,#689,
#690,#691,#692,#693,#694,#695,#696,#697,#698,#699,#700,#701,#702,#703,#704,
#705,#706,#707,#708,#709,#710,#711,#712,#713,#714,#715,#716,#717,#718,#719,
#720));
#722=DERIVED_UNIT_ELEMENT(#724,1.);
#723=DERIVED_UNIT_ELEMENT(#1210,-3.);
#724=(
MASS_UNIT()
NAMED_UNIT(*)
SI_UNIT(.KILO.,.GRAM.)
);
#725=DERIVED_UNIT((#722,#723));
#726=MEASURE_REPRESENTATION_ITEM('density measure',
POSITIVE_RATIO_MEASURE(7850.),#725);
#727=PROPERTY_DEFINITION_REPRESENTATION(#732,#729);
#728=PROPERTY_DEFINITION_REPRESENTATION(#733,#730);
#729=REPRESENTATION('material name',(#731),#1207);
#730=REPRESENTATION('density',(#726),#1207);
#731=DESCRIPTIVE_REPRESENTATION_ITEM('Stahl','Stahl');
#732=PROPERTY_DEFINITION('material property','material name',#1217);
#733=PROPERTY_DEFINITION('material property','density of part',#1217);
#734=AXIS2_PLACEMENT_3D('',#1001,#798,#799);
#735=AXIS2_PLACEMENT_3D('',#1002,#800,#801);
#736=AXIS2_PLACEMENT_3D('',#1027,#814,#815);
#737=AXIS2_PLACEMENT_3D('',#1033,#819,#820);
#738=AXIS2_PLACEMENT_3D('',#1037,#823,#824);
#739=AXIS2_PLACEMENT_3D('',#1041,#827,#828);
#740=AXIS2_PLACEMENT_3D('',#1045,#831,#832);
#741=AXIS2_PLACEMENT_3D('',#1049,#835,#836);
#742=AXIS2_PLACEMENT_3D('',#1053,#839,#840);
#743=AXIS2_PLACEMENT_3D('',#1057,#843,#844);
#744=AXIS2_PLACEMENT_3D('',#1061,#847,#848);
#745=AXIS2_PLACEMENT_3D('',#1065,#851,#852);
#746=AXIS2_PLACEMENT_3D('',#1069,#855,#856);
#747=AXIS2_PLACEMENT_3D('',#1073,#859,#860);
#748=AXIS2_PLACEMENT_3D('',#1075,#862,#863);
#749=AXIS2_PLACEMENT_3D('',#1094,#873,#874);
#750=AXIS2_PLACEMENT_3D('',#1100,#878,#879);
#751=AXIS2_PLACEMENT_3D('',#1104,#882,#883);
#752=AXIS2_PLACEMENT_3D('',#1108,#886,#887);
#753=AXIS2_PLACEMENT_3D('',#1112,#890,#891);
#754=AXIS2_PLACEMENT_3D('',#1116,#894,#895);
#755=AXIS2_PLACEMENT_3D('',#1120,#898,#899);
#756=AXIS2_PLACEMENT_3D('',#1124,#902,#903);
#757=AXIS2_PLACEMENT_3D('',#1128,#906,#907);
#758=AXIS2_PLACEMENT_3D('',#1130,#909,#910);
#759=AXIS2_PLACEMENT_3D('',#1132,#911,#912);
#760=AXIS2_PLACEMENT_3D('',#1135,#914,#915);
#761=AXIS2_PLACEMENT_3D('',#1136,#916,#917);
#762=AXIS2_PLACEMENT_3D('',#1139,#919,#920);
#763=AXIS2_PLACEMENT_3D('',#1141,#921,#922);
#764=AXIS2_PLACEMENT_3D('',#1145,#924,#925);
#765=AXIS2_PLACEMENT_3D('',#1146,#926,#927);
#766=AXIS2_PLACEMENT_3D('',#1147,#928,#929);
#767=AXIS2_PLACEMENT_3D('',#1150,#931,#932);
#768=AXIS2_PLACEMENT_3D('',#1151,#933,#934);
#769=AXIS2_PLACEMENT_3D('',#1152,#935,#936);
#770=AXIS2_PLACEMENT_3D('',#1154,#937,#938);
#771=AXIS2_PLACEMENT_3D('',#1158,#940,#941);
#772=AXIS2_PLACEMENT_3D('',#1159,#942,#943);
#773=AXIS2_PLACEMENT_3D('',#1160,#944,#945);
#774=AXIS2_PLACEMENT_3D('',#1163,#947,#948);
#775=AXIS2_PLACEMENT_3D('',#1164,#949,#950);
#776=AXIS2_PLACEMENT_3D('',#1165,#951,#952);
#777=AXIS2_PLACEMENT_3D('',#1167,#953,#954);
#778=AXIS2_PLACEMENT_3D('',#1171,#956,#957);
#779=AXIS2_PLACEMENT_3D('',#1172,#958,#959);
#780=AXIS2_PLACEMENT_3D('',#1173,#960,#961);
#781=AXIS2_PLACEMENT_3D('',#1176,#963,#964);
#782=AXIS2_PLACEMENT_3D('',#1177,#965,#966);
#783=AXIS2_PLACEMENT_3D('',#1178,#967,#968);
#784=AXIS2_PLACEMENT_3D('',#1180,#969,#970);
#785=AXIS2_PLACEMENT_3D('',#1184,#972,#973);
#786=AXIS2_PLACEMENT_3D('',#1185,#974,#975);
#787=AXIS2_PLACEMENT_3D('',#1186,#976,#977);
#788=AXIS2_PLACEMENT_3D('',#1189,#979,#980);
#789=AXIS2_PLACEMENT_3D('',#1190,#981,#982);
#790=AXIS2_PLACEMENT_3D('',#1191,#983,#984);
#791=AXIS2_PLACEMENT_3D('',#1193,#985,#986);
#792=AXIS2_PLACEMENT_3D('',#1197,#988,#989);
#793=AXIS2_PLACEMENT_3D('',#1198,#990,#991);
#794=AXIS2_PLACEMENT_3D('',#1199,#992,#993);
#795=AXIS2_PLACEMENT_3D('',#1202,#995,#996);
#796=AXIS2_PLACEMENT_3D('',#1203,#997,#998);
#797=AXIS2_PLACEMENT_3D('',#1204,#999,#1000);
#798=DIRECTION('axis',(0.,0.,1.));
#799=DIRECTION('refdir',(1.,0.,0.));
#800=DIRECTION('center_axis',(3.44988118694989E-16,0.,1.));
#801=DIRECTION('ref_axis',(1.,0.,-3.44988118694989E-16));
#802=DIRECTION('',(-0.540841407305996,-0.841124587765255,-2.31814713951167E-32));
#803=DIRECTION('',(-0.53966617405029,0.84187910093191,2.32022658477394E-32));
#804=DIRECTION('',(-1.,-3.79922163172666E-16,0.));
#805=DIRECTION('',(0.55342502102418,-0.832899001142627,-2.2954773467397E-32));
#806=DIRECTION('',(-0.5393221881761,-0.84209950560545,-2.32083402209171E-32));
#807=DIRECTION('',(1.,3.95429121107785E-16,0.));
#808=DIRECTION('',(0.521669555918188,0.853147627569883,2.35128274835814E-32));
#809=DIRECTION('',(0.529513092018536,-0.848301765518008,-2.33792750774644E-32));
#810=DIRECTION('',(1.,3.92000683812887E-16,0.));
#811=DIRECTION('',(-0.543598771192546,0.839345206668838,2.31324314876077E-32));
#812=DIRECTION('',(0.547867937795919,0.836564834746983,2.30558041804147E-32));
#813=DIRECTION('',(-1.,-3.82062638874015E-16,0.));
#814=DIRECTION('center_axis',(-0.841124587765255,0.540841407305996,2.90177989121234E-16));
#815=DIRECTION('ref_axis',(3.44988118694989E-16,0.,1.));
#816=DIRECTION('',(3.44988118694989E-16,0.,1.));
#817=DIRECTION('',(-0.540841407305996,-0.841124587765255,1.86583859618846E-16));
#818=DIRECTION('',(3.44988118694989E-16,0.,1.));
#819=DIRECTION('center_axis',(0.841879100931911,0.53966617405029,-2.90438287199129E-16));
#820=DIRECTION('ref_axis',(-3.44988118694989E-16,0.,-1.));
#821=DIRECTION('',(-0.53966617405029,0.84187910093191,1.86178418108932E-16));
#822=DIRECTION('',(3.44988118694989E-16,0.,1.));
#823=DIRECTION('center_axis',(-3.79922163172666E-16,1.,1.31068632323469E-31));
#824=DIRECTION('ref_axis',(0.,-1.31068632323469E-31,1.));
#825=DIRECTION('',(-1.,-3.79922163172666E-16,3.44988118694989E-16));
#826=DIRECTION('',(3.44988118694989E-16,0.,1.));
#827=DIRECTION('center_axis',(-0.832899001142627,-0.55342502102418,2.87340259467131E-16));
#828=DIRECTION('ref_axis',(3.44988118694989E-16,0.,1.));
#829=DIRECTION('',(0.55342502102418,-0.832899001142627,-1.90925056841867E-16));
#830=DIRECTION('',(3.44988118694989E-16,0.,1.));
#831=DIRECTION('center_axis',(-0.84209950560545,0.5393221881761,2.90514324192805E-16));
#832=DIRECTION('ref_axis',(3.44988118694989E-16,0.,1.));
#833=DIRECTION('',(-0.5393221881761,-0.84209950560545,1.86059747069338E-16));
#834=DIRECTION('',(3.44988118694989E-16,0.,1.));
#835=DIRECTION('center_axis',(3.95429121107785E-16,-1.,-1.36418348568188E-31));
#836=DIRECTION('ref_axis',(0.,1.36418348568188E-31,-1.));
#837=DIRECTION('',(1.,3.95429121107785E-16,-3.44988118694989E-16));
#838=DIRECTION('',(3.44988118694989E-16,0.,1.));
#839=DIRECTION('center_axis',(0.853147627569883,-0.521669555918188,-2.94325795004427E-16));
#840=DIRECTION('ref_axis',(-3.44988118694989E-16,0.,-1.));
#841=DIRECTION('',(0.521669555918188,0.853147627569883,-1.79969798676666E-16));
#842=DIRECTION('',(3.44988118694989E-16,0.,1.));
#843=DIRECTION('center_axis',(-0.848301765518008,-0.529513092018536,2.92654030171696E-16));
#844=DIRECTION('ref_axis',(3.44988118694989E-16,0.,1.));
#845=DIRECTION('',(0.529513092018536,-0.848301765518008,-1.82675725439842E-16));
#846=DIRECTION('',(3.44988118694989E-16,0.,1.));
#847=DIRECTION('center_axis',(3.92000683812887E-16,-1.,-1.35235578435757E-31));
#848=DIRECTION('ref_axis',(0.,1.35235578435757E-31,-1.));
#849=DIRECTION('',(1.,3.92000683812887E-16,-3.44988118694989E-16));
#850=DIRECTION('',(3.44988118694989E-16,0.,1.));
#851=DIRECTION('center_axis',(0.839345206668838,0.543598771192546,-2.89564123784339E-16));
#852=DIRECTION('ref_axis',(-3.44988118694989E-16,0.,-1.));
#853=DIRECTION('',(-0.543598771192546,0.839345206668838,1.87535117398624E-16));
#854=DIRECTION('',(3.44988118694989E-16,0.,1.));
#855=DIRECTION('center_axis',(0.836564834746983,-0.547867937795919,-2.88604928505746E-16));
#856=DIRECTION('ref_axis',(-3.44988118694989E-16,0.,-1.));
#857=DIRECTION('',(0.547867937795919,0.836564834746983,-1.89007929153517E-16));
#858=DIRECTION('',(3.44988118694989E-16,0.,1.));
#859=DIRECTION('center_axis',(-3.82062638874015E-16,1.,1.31807071008789E-31));
#860=DIRECTION('ref_axis',(0.,-1.31807071008789E-31,1.));
#861=DIRECTION('',(-1.,-3.82062638874015E-16,3.44988118694989E-16));
#862=DIRECTION('center_axis',(3.44988118694989E-16,0.,1.));
#863=DIRECTION('ref_axis',(1.,0.,-3.44988118694989E-16));
#864=DIRECTION('',(0.,-1.,-2.75600924432687E-32));
#865=DIRECTION('',(-0.535075607166358,-0.844804175306653,-2.32828811679107E-32));
#866=DIRECTION('',(1.,0.,0.));
#867=DIRECTION('',(0.503500478453455,0.863994946858569,2.38117806059392E-32));
#868=DIRECTION('',(0.511223355621619,-0.859447892932999,-2.3686463379406E-32));
#869=DIRECTION('',(1.,0.,0.));
#870=DIRECTION('',(-0.534554660398479,0.845133903618987,2.32919685106798E-32));
#871=DIRECTION('',(0.,1.,2.75600924432687E-32));
#872=DIRECTION('',(-1.,0.,0.));
#873=DIRECTION('center_axis',(-1.,-9.50790444306326E-48,3.44988118694989E-16));
#874=DIRECTION('ref_axis',(3.44988118694989E-16,0.,1.));
#875=DIRECTION('',(3.44988118694989E-16,0.,1.));
#876=DIRECTION('',(9.50790444306326E-48,-1.,-3.28011406654413E-63));
#877=DIRECTION('',(3.44988118694989E-16,0.,1.));
#878=DIRECTION('center_axis',(-0.844804175306653,0.535075607166358,2.91447403104714E-16));
#879=DIRECTION('ref_axis',(3.44988118694989E-16,0.,1.));
#880=DIRECTION('',(-0.535075607166358,-0.844804175306653,1.84594727075901E-16));
#881=DIRECTION('',(3.44988118694989E-16,0.,1.));
#882=DIRECTION('center_axis',(0.,-1.,0.));
#883=DIRECTION('ref_axis',(0.,0.,-1.));
#884=DIRECTION('',(1.,0.,-3.44988118694989E-16));
#885=DIRECTION('',(3.44988118694989E-16,0.,1.));
#886=DIRECTION('center_axis',(0.863994946858569,-0.503500478453455,-2.98067991278715E-16));
#887=DIRECTION('ref_axis',(-3.44988118694989E-16,0.,-1.));
#888=DIRECTION('',(0.503500478453455,0.863994946858569,-1.73701682823684E-16));
#889=DIRECTION('',(3.44988118694989E-16,0.,1.));
#890=DIRECTION('center_axis',(-0.859447892932999,-0.511223355621619,2.96499311699328E-16));
#891=DIRECTION('ref_axis',(3.44988118694989E-16,0.,1.));
#892=DIRECTION('',(0.511223355621619,-0.859447892932999,-1.76365983688842E-16));
#893=DIRECTION('',(3.44988118694989E-16,0.,1.));
#894=DIRECTION('center_axis',(0.,-1.,0.));
#895=DIRECTION('ref_axis',(0.,0.,-1.));
#896=DIRECTION('',(1.,0.,-3.44988118694989E-16));
#897=DIRECTION('',(3.44988118694989E-16,0.,1.));
#898=DIRECTION('center_axis',(0.845133903618987,0.534554660398479,-2.91561155454867E-16));
#899=DIRECTION('ref_axis',(-3.44988118694989E-16,0.,-1.));
#900=DIRECTION('',(-0.534554660398479,0.845133903618987,1.8441500663051E-16));
#901=DIRECTION('',(3.44988118694989E-16,0.,1.));
#902=DIRECTION('center_axis',(1.,9.50790444306326E-48,-3.44988118694989E-16));
#903=DIRECTION('ref_axis',(-3.44988118694989E-16,0.,-1.));
#904=DIRECTION('',(-9.50790444306326E-48,1.,3.28011406654413E-63));
#905=DIRECTION('',(3.44988118694989E-16,0.,1.));
#906=DIRECTION('center_axis',(0.,1.,0.));
#907=DIRECTION('ref_axis',(0.,0.,1.));
#908=DIRECTION('',(-1.,0.,3.44988118694989E-16));
#909=DIRECTION('center_axis',(0.,0.,1.));
#910=DIRECTION('ref_axis',(1.,0.,0.));
#911=DIRECTION('center_axis',(3.44988118694989E-16,0.,1.));
#912=DIRECTION('ref_axis',(1.,0.,0.));
#913=DIRECTION('',(0.,0.,1.));
#914=DIRECTION('center_axis',(0.,0.,1.));
#915=DIRECTION('ref_axis',(1.,0.,0.));
#916=DIRECTION('center_axis',(0.,0.,-1.));
#917=DIRECTION('ref_axis',(1.,0.,0.));
#918=DIRECTION('',(0.581238193719095,7.11811493480279E-17,0.813733471206736));
#919=DIRECTION('center_axis',(-3.44988118694988E-16,0.,-1.));
#920=DIRECTION('ref_axis',(-1.,0.,1.53328052753329E-16));
#921=DIRECTION('center_axis',(-3.44988118694989E-16,0.,-1.));
#922=DIRECTION('ref_axis',(-1.,0.,3.44988118694989E-16));
#923=DIRECTION('',(0.707106781186547,8.65956056235493E-17,-0.707106781186548));
#924=DIRECTION('center_axis',(3.44988118694989E-16,0.,1.));
#925=DIRECTION('ref_axis',(-1.,0.,0.));
#926=DIRECTION('center_axis',(3.44988118694989E-16,0.,1.));
#927=DIRECTION('ref_axis',(-1.,0.,0.));
#928=DIRECTION('center_axis',(3.44988118694989E-16,0.,1.));
#929=DIRECTION('ref_axis',(1.,0.,0.));
#930=DIRECTION('',(-3.44988118694989E-16,0.,-1.));
#931=DIRECTION('center_axis',(3.44988118694989E-16,0.,1.));
#932=DIRECTION('ref_axis',(1.,0.,-3.44988118694989E-16));
#933=DIRECTION('center_axis',(3.44988118694989E-16,0.,1.));
#934=DIRECTION('ref_axis',(1.,0.,-3.44988118694989E-16));
#935=DIRECTION('center_axis',(-3.4498811869499E-16,0.,-1.));
#936=DIRECTION('ref_axis',(-1.,0.,1.63415424644995E-16));
#937=DIRECTION('center_axis',(-3.44988118694989E-16,0.,-1.));
#938=DIRECTION('ref_axis',(-1.,0.,3.44988118694989E-16));
#939=DIRECTION('',(0.707106781186548,8.65956056235495E-17,-0.707106781186547));
#940=DIRECTION('center_axis',(3.44988118694989E-16,0.,1.));
#941=DIRECTION('ref_axis',(-1.,0.,0.));
#942=DIRECTION('center_axis',(3.44988118694989E-16,0.,1.));
#943=DIRECTION('ref_axis',(-1.,0.,0.));
#944=DIRECTION('center_axis',(3.44988118694989E-16,0.,1.));
#945=DIRECTION('ref_axis',(1.,0.,0.));
#946=DIRECTION('',(-3.44988118694989E-16,0.,-1.));
#947=DIRECTION('center_axis',(3.44988118694989E-16,0.,1.));
#948=DIRECTION('ref_axis',(1.,0.,-3.44988118694989E-16));
#949=DIRECTION('center_axis',(3.44988118694989E-16,0.,1.));
#950=DIRECTION('ref_axis',(1.,0.,-3.44988118694989E-16));
#951=DIRECTION('center_axis',(-3.44988118694989E-16,0.,-1.));
#952=DIRECTION('ref_axis',(-1.,0.,1.66545988335512E-16));
#953=DIRECTION('center_axis',(-3.44988118694989E-16,0.,-1.));
#954=DIRECTION('ref_axis',(-1.,0.,3.44988118694989E-16));
#955=DIRECTION('',(0.707106781186548,8.65956056235494E-17,-0.707106781186547));
#956=DIRECTION('center_axis',(3.44988118694989E-16,0.,1.));
#957=DIRECTION('ref_axis',(-1.,0.,0.));
#958=DIRECTION('center_axis',(3.44988118694989E-16,0.,1.));
#959=DIRECTION('ref_axis',(-1.,0.,0.));
#960=DIRECTION('center_axis',(3.44988118694989E-16,0.,1.));
#961=DIRECTION('ref_axis',(1.,0.,0.));
#962=DIRECTION('',(-3.44988118694989E-16,0.,-1.));
#963=DIRECTION('center_axis',(3.44988118694989E-16,0.,1.));
#964=DIRECTION('ref_axis',(1.,0.,-3.44988118694989E-16));
#965=DIRECTION('center_axis',(3.44988118694989E-16,0.,1.));
#966=DIRECTION('ref_axis',(1.,0.,-3.44988118694989E-16));
#967=DIRECTION('center_axis',(-3.44988118694989E-16,0.,-1.));
#968=DIRECTION('ref_axis',(-1.,0.,1.68071134748841E-16));
#969=DIRECTION('center_axis',(-3.44988118694989E-16,0.,-1.));
#970=DIRECTION('ref_axis',(-1.,0.,3.44988118694989E-16));
#971=DIRECTION('',(0.707106781186552,8.65956056235499E-17,-0.707106781186543));
#972=DIRECTION('center_axis',(3.44988118694989E-16,0.,1.));
#973=DIRECTION('ref_axis',(-1.,0.,0.));
#974=DIRECTION('center_axis',(3.44988118694989E-16,0.,1.));
#975=DIRECTION('ref_axis',(-1.,0.,0.));
#976=DIRECTION('center_axis',(3.44988118694989E-16,0.,1.));
#977=DIRECTION('ref_axis',(1.,0.,0.));
#978=DIRECTION('',(-3.44988118694989E-16,0.,-1.));
#979=DIRECTION('center_axis',(3.44988118694989E-16,0.,1.));
#980=DIRECTION('ref_axis',(1.,0.,-3.44988118694989E-16));
#981=DIRECTION('center_axis',(3.44988118694989E-16,0.,1.));
#982=DIRECTION('ref_axis',(1.,0.,-3.44988118694989E-16));
#983=DIRECTION('center_axis',(-3.44988118694989E-16,0.,-1.));
#984=DIRECTION('ref_axis',(-1.,0.,1.68973772422036E-16));
#985=DIRECTION('center_axis',(-3.44988118694989E-16,0.,-1.));
#986=DIRECTION('ref_axis',(-1.,0.,3.44988118694989E-16));
#987=DIRECTION('',(0.707106781186549,8.65956056235495E-17,-0.707106781186546));
#988=DIRECTION('center_axis',(3.44988118694989E-16,0.,1.));
#989=DIRECTION('ref_axis',(-1.,0.,0.));
#990=DIRECTION('center_axis',(3.44988118694989E-16,0.,1.));
#991=DIRECTION('ref_axis',(-1.,0.,0.));
#992=DIRECTION('center_axis',(3.44988118694989E-16,0.,1.));
#993=DIRECTION('ref_axis',(1.,0.,0.));
#994=DIRECTION('',(-3.44988118694989E-16,0.,-1.));
#995=DIRECTION('center_axis',(3.44988118694989E-16,0.,1.));
#996=DIRECTION('ref_axis',(1.,0.,-3.44988118694989E-16));
#997=DIRECTION('center_axis',(3.44988118694989E-16,0.,1.));
#998=DIRECTION('ref_axis',(1.,0.,-3.44988118694989E-16));
#999=DIRECTION('center_axis',(-3.44988118694989E-16,0.,-1.));
#1000=DIRECTION('ref_axis',(-1.,0.,3.44988118694989E-16));
#1001=CARTESIAN_POINT('',(0.,0.,0.));
#1002=CARTESIAN_POINT('Origin',(5.00000000000001,0.,23.25));
#1003=CARTESIAN_POINT('',(6.94981881896531,-0.385694482453379,23.25));
#1004=CARTESIAN_POINT('',(6.28269755760705,-1.42321137440971,23.25));
#1005=CARTESIAN_POINT('',(6.94981881896531,-0.385694482453379,23.25));
#1006=CARTESIAN_POINT('',(7.61489385286843,-1.42321137440971,23.25));
#1007=CARTESIAN_POINT('',(7.61489385286843,-1.42321137440971,23.25));
#1008=CARTESIAN_POINT('',(8.34545338074243,-1.42321137440971,23.25));
#1009=CARTESIAN_POINT('',(8.34545338074243,-1.42321137440971,23.25));
#1010=CARTESIAN_POINT('',(7.32021444956338,0.119762740008321,23.25));
#1011=CARTESIAN_POINT('',(7.32021444956338,0.119762740008321,23.25));
#1012=CARTESIAN_POINT('',(8.25336599270379,1.57678874479958,23.25));
#1013=CARTESIAN_POINT('',(8.25336599270379,1.57678874479958,23.25));
#1014=CARTESIAN_POINT('',(7.55145573536431,1.57678874479958,23.25));
#1015=CARTESIAN_POINT('',(7.55145573536431,1.57678874479958,23.25));
#1016=CARTESIAN_POINT('',(6.96209722677743,0.612941405646291,23.25));
#1017=CARTESIAN_POINT('',(6.96209722677743,0.612941405646291,23.25));
#1018=CARTESIAN_POINT('',(6.36046016136681,1.57678874479958,23.25));
#1019=CARTESIAN_POINT('',(6.36046016136681,1.57678874479958,23.25));
#1020=CARTESIAN_POINT('',(5.6524109981445,1.57678874479958,23.25));
#1021=CARTESIAN_POINT('',(5.6524109981445,1.57678874479958,23.25));
#1022=CARTESIAN_POINT('',(6.58146971384561,0.142273030154195,23.25));
#1023=CARTESIAN_POINT('',(6.58146971384561,0.142273030154195,23.25));
#1024=CARTESIAN_POINT('',(5.55623093167817,-1.42321137440971,23.25));
#1025=CARTESIAN_POINT('',(5.55623093167817,-1.42321137440971,23.25));
#1026=CARTESIAN_POINT('',(6.28269755760705,-1.42321137440971,23.25));
#1027=CARTESIAN_POINT('Origin',(6.61625818828618,-0.904452928431544,24.));
#1028=CARTESIAN_POINT('',(6.28269755760705,-1.42321137440971,24.));
#1029=CARTESIAN_POINT('',(6.28269755760705,-1.42321137440971,24.));
#1030=CARTESIAN_POINT('',(6.94981881896531,-0.385694482453379,24.));
#1031=CARTESIAN_POINT('',(6.58559741390055,-0.952137020047488,24.));
#1032=CARTESIAN_POINT('',(6.94981881896531,-0.385694482453379,24.));
#1033=CARTESIAN_POINT('Origin',(7.28235633591687,-0.904452928431544,24.));
#1034=CARTESIAN_POINT('',(7.61489385286843,-1.42321137440971,24.));
#1035=CARTESIAN_POINT('',(6.74453837554248,-0.0654570403868197,24.));
#1036=CARTESIAN_POINT('',(7.61489385286843,-1.42321137440971,24.));
#1037=CARTESIAN_POINT('Origin',(7.98017361680543,-1.42321137440971,24.));
#1038=CARTESIAN_POINT('',(8.34545338074243,-1.42321137440971,24.));
#1039=CARTESIAN_POINT('',(6.49008680840272,-1.42321137440971,24.));
#1040=CARTESIAN_POINT('',(8.34545338074243,-1.42321137440971,24.));
#1041=CARTESIAN_POINT('Origin',(7.8328339151529,-0.651724317200693,24.));
#1042=CARTESIAN_POINT('',(7.32021444956338,0.119762740008321,24.));
#1043=CARTESIAN_POINT('',(7.24880955378804,0.227226378457321,24.));
#1044=CARTESIAN_POINT('',(7.32021444956338,0.119762740008321,24.));
#1045=CARTESIAN_POINT('Origin',(7.78679022113358,0.848275742403952,24.));
#1046=CARTESIAN_POINT('',(8.25336599270379,1.57678874479958,24.));
#1047=CARTESIAN_POINT('',(7.18886787722798,-0.0853222463903687,24.));
#1048=CARTESIAN_POINT('',(8.25336599270379,1.57678874479958,24.));
#1049=CARTESIAN_POINT('Origin',(7.90241086403405,1.57678874479958,24.));
#1050=CARTESIAN_POINT('',(7.55145573536431,1.57678874479958,24.));
#1051=CARTESIAN_POINT('',(6.45120543201703,1.57678874479958,24.));
#1052=CARTESIAN_POINT('',(7.55145573536431,1.57678874479958,24.));
#1053=CARTESIAN_POINT('Origin',(7.25677648107087,1.09486507522294,24.));
#1054=CARTESIAN_POINT('',(6.96209722677743,0.612941405646291,24.));
#1055=CARTESIAN_POINT('',(6.70605694052993,0.194208588489862,24.));
#1056=CARTESIAN_POINT('',(6.96209722677743,0.612941405646291,24.));
#1057=CARTESIAN_POINT('Origin',(6.66127869407212,1.09486507522294,24.));
#1058=CARTESIAN_POINT('',(6.36046016136681,1.57678874479958,24.));
#1059=CARTESIAN_POINT('',(6.6742801356914,1.0740362306747,24.));
#1060=CARTESIAN_POINT('',(6.36046016136681,1.57678874479958,24.));
#1061=CARTESIAN_POINT('Origin',(6.00643557975566,1.57678874479958,24.));
#1062=CARTESIAN_POINT('',(5.6524109981445,1.57678874479958,24.));
#1063=CARTESIAN_POINT('',(5.50321778987783,1.57678874479958,24.));
#1064=CARTESIAN_POINT('',(5.6524109981445,1.57678874479958,24.));
#1065=CARTESIAN_POINT('Origin',(6.11694035599505,0.859530887476888,24.));
#1066=CARTESIAN_POINT('',(6.58146971384561,0.142273030154195,24.));
#1067=CARTESIAN_POINT('',(6.14800042794008,0.81157249631156,24.));
#1068=CARTESIAN_POINT('',(6.58146971384561,0.142273030154195,24.));
#1069=CARTESIAN_POINT('Origin',(6.06885032276189,-0.640469172127757,24.));
#1070=CARTESIAN_POINT('',(5.55623093167817,-1.42321137440971,24.));
#1071=CARTESIAN_POINT('',(6.05520982597904,-0.6612974760853,24.));
#1072=CARTESIAN_POINT('',(5.55623093167817,-1.42321137440971,24.));
#1073=CARTESIAN_POINT('Origin',(5.91946424464261,-1.42321137440971,24.));
#1074=CARTESIAN_POINT('',(5.45973212232131,-1.42321137440971,24.));
#1075=CARTESIAN_POINT('Origin',(5.00000000000001,0.,23.25));
#1076=CARTESIAN_POINT('',(0.348504657740704,-7.11756862699986,23.25));
#1077=CARTESIAN_POINT('',(0.348504657740704,-8.3760953694582,23.25));
#1078=CARTESIAN_POINT('',(0.348504657740704,-7.11756862699986,23.25));
#1079=CARTESIAN_POINT('',(1.45150574564468,-5.37609525024891,23.25));
#1080=CARTESIAN_POINT('',(1.45150574564468,-5.37609525024891,23.25));
#1081=CARTESIAN_POINT('',(0.753688837285153,-5.37609525024891,23.25));
#1082=CARTESIAN_POINT('',(0.753688837285153,-5.37609525024891,23.25));
#1083=CARTESIAN_POINT('',(0.0620107603026551,-6.56299851834774,23.25));
#1084=CARTESIAN_POINT('',(0.0620107603026551,-6.56299851834774,23.25));
#1085=CARTESIAN_POINT('',(-0.643992100958713,-5.37609525024891,23.25));
#1086=CARTESIAN_POINT('',(-0.643992100958713,-5.37609525024891,23.25));
#1087=CARTESIAN_POINT('',(-1.35408756614197,-5.37609525024891,23.25));
#1088=CARTESIAN_POINT('',(-1.35408756614197,-5.37609525024891,23.25));
#1089=CARTESIAN_POINT('',(-0.255178784136661,-7.11347617208958,23.25));
#1090=CARTESIAN_POINT('',(-0.255178784136661,-7.11347617208958,23.25));
#1091=CARTESIAN_POINT('',(-0.255178784136661,-8.3760953694582,23.25));
#1092=CARTESIAN_POINT('',(-0.255178784136661,-8.3760953694582,23.25));
#1093=CARTESIAN_POINT('',(0.348504657740704,-8.3760953694582,23.25));
#1094=CARTESIAN_POINT('Origin',(0.348504657740705,-7.74683199822903,24.));
#1095=CARTESIAN_POINT('',(0.348504657740705,-8.3760953694582,24.));
#1096=CARTESIAN_POINT('',(0.348504657740705,-8.3760953694582,24.));
#1097=CARTESIAN_POINT('',(0.348504657740705,-7.11756862699986,24.));
#1098=CARTESIAN_POINT('',(0.348504657740705,-3.87341599911451,24.));
#1099=CARTESIAN_POINT('',(0.348504657740705,-7.11756862699986,24.));
#1100=CARTESIAN_POINT('Origin',(0.900005201692693,-6.24683193862438,24.));
#1101=CARTESIAN_POINT('',(1.45150574564468,-5.37609525024891,24.));
#1102=CARTESIAN_POINT('',(2.89882211169216,-3.0909996625399,24.));
#1103=CARTESIAN_POINT('',(1.45150574564468,-5.37609525024891,24.));
#1104=CARTESIAN_POINT('Origin',(1.10259729146492,-5.37609525024891,24.));
#1105=CARTESIAN_POINT('',(0.753688837285154,-5.37609525024891,24.));
#1106=CARTESIAN_POINT('',(3.05129864573246,-5.37609525024891,24.));
#1107=CARTESIAN_POINT('',(0.753688837285154,-5.37609525024891,24.));
#1108=CARTESIAN_POINT('Origin',(0.407849798793904,-5.96954688429832,24.));
#1109=CARTESIAN_POINT('',(0.0620107603026554,-6.56299851834774,24.));
#1110=CARTESIAN_POINT('',(2.28837579168967,-2.74260862936609,24.));
#1111=CARTESIAN_POINT('',(0.0620107603026554,-6.56299851834774,24.));
#1112=CARTESIAN_POINT('Origin',(-0.290990670328029,-5.96954688429832,24.));
#1113=CARTESIAN_POINT('',(-0.643992100958712,-5.37609525024891,24.));
#1114=CARTESIAN_POINT('',(-0.911011682382794,-4.92719280065771,24.));
#1115=CARTESIAN_POINT('',(-0.643992100958712,-5.37609525024891,24.));
#1116=CARTESIAN_POINT('Origin',(-0.999039833550341,-5.37609525024891,24.));
#1117=CARTESIAN_POINT('',(-1.35408756614197,-5.37609525024891,24.));
#1118=CARTESIAN_POINT('',(2.00048008322483,-5.37609525024891,24.));
#1119=CARTESIAN_POINT('',(-1.35408756614197,-5.37609525024891,24.));
#1120=CARTESIAN_POINT('Origin',(-0.804633175139315,-6.24478571116924,24.));
#1121=CARTESIAN_POINT('',(-0.25517878413666,-7.11347617208958,24.));
#1122=CARTESIAN_POINT('',(-1.38590428046955,-5.3257928471982,24.));
#1123=CARTESIAN_POINT('',(-0.25517878413666,-7.11347617208958,24.));
#1124=CARTESIAN_POINT('Origin',(-0.25517878413666,-7.74478577077389,24.));
#1125=CARTESIAN_POINT('',(-0.25517878413666,-8.3760953694582,24.));
#1126=CARTESIAN_POINT('',(-0.25517878413666,-3.87239288538694,24.));
#1127=CARTESIAN_POINT('',(-0.25517878413666,-8.3760953694582,24.));
#1128=CARTESIAN_POINT('Origin',(0.0466629368020222,-8.3760953694582,24.));
#1129=CARTESIAN_POINT('',(2.52333146840101,-8.3760953694582,24.));
#1130=CARTESIAN_POINT('Origin',(0.,0.,3.27953494659146));
#1131=CARTESIAN_POINT('',(-15.,-1.83697019872103E-15,0.));
#1132=CARTESIAN_POINT('Origin',(0.,0.,0.));
#1133=CARTESIAN_POINT('',(-15.,-1.83697019872103E-15,6.55906989318292));
#1134=CARTESIAN_POINT('',(-15.,-1.83697019872103E-15,3.27953494659146));
#1135=CARTESIAN_POINT('Origin',(0.,0.,6.55906989318292));
#1136=CARTESIAN_POINT('Origin',(0.,0.,6.55906989318292));
#1137=CARTESIAN_POINT('',(0.,0.,27.559069893183));
#1138=CARTESIAN_POINT('',(-15.,-1.83697019872103E-15,6.55906989318292));
#1139=CARTESIAN_POINT('Origin',(1.05221376201972E-14,0.,30.5));
#1140=CARTESIAN_POINT('',(4.00000000000001,-4.89858719658941E-16,31.));
#1141=CARTESIAN_POINT('Origin',(1.06946316795447E-14,0.,31.));
#1142=CARTESIAN_POINT('',(5.00000000000001,6.12323399573677E-16,30.));
#1143=CARTESIAN_POINT('',(4.50000000000001,5.51091059616309E-16,30.5));
#1144=CARTESIAN_POINT('',(-4.99999999999999,-6.12323399573677E-16,30.));
#1145=CARTESIAN_POINT('Origin',(1.03496435608497E-14,0.,30.));
#1146=CARTESIAN_POINT('Origin',(1.03496435608497E-14,0.,30.));
#1147=CARTESIAN_POINT('Origin',(9.48717326411221E-15,0.,27.5));
#1148=CARTESIAN_POINT('',(-4.99999999999999,-6.12323399573677E-16,24.));
#1149=CARTESIAN_POINT('',(-4.99999999999999,-6.12323399573677E-16,27.5));
#1150=CARTESIAN_POINT('Origin',(8.27971484867974E-15,0.,24.));
#1151=CARTESIAN_POINT('Origin',(1.0547118733939E-14,0.,31.));
#1152=CARTESIAN_POINT('Origin',(8.10722078933225E-15,0.,23.5));
#1153=CARTESIAN_POINT('',(9.00000000000001,-1.10218211923262E-15,24.));
#1154=CARTESIAN_POINT('Origin',(8.27971484867974E-15,0.,24.));
#1155=CARTESIAN_POINT('',(10.,1.22464679914735E-15,23.));
#1156=CARTESIAN_POINT('',(9.50000000000001,1.16341445918999E-15,23.5));
#1157=CARTESIAN_POINT('',(-9.99999999999999,-1.22464679914735E-15,23.));
#1158=CARTESIAN_POINT('Origin',(7.93472672998476E-15,0.,23.));
#1159=CARTESIAN_POINT('Origin',(7.93472672998476E-15,0.,23.));
#1160=CARTESIAN_POINT('Origin',(7.07225643324728E-15,0.,20.5));
#1161=CARTESIAN_POINT('',(-9.99999999999999,-1.22464679914735E-15,17.));
#1162=CARTESIAN_POINT('',(-9.99999999999999,-1.22464679914735E-15,20.5));
#1163=CARTESIAN_POINT('Origin',(5.86479801781482E-15,0.,17.));
#1164=CARTESIAN_POINT('Origin',(5.00000000000001,0.,24.));
#1165=CARTESIAN_POINT('Origin',(5.69230395846732E-15,0.,16.5));
#1166=CARTESIAN_POINT('',(14.,-1.71450551880629E-15,17.));
#1167=CARTESIAN_POINT('Origin',(5.86479801781482E-15,0.,17.));
#1168=CARTESIAN_POINT('',(15.,1.83697019872103E-15,16.));
#1169=CARTESIAN_POINT('',(14.5,1.77573785876366E-15,16.5));
#1170=CARTESIAN_POINT('',(-15.,-1.83697019872103E-15,16.));
#1171=CARTESIAN_POINT('Origin',(5.51980989911983E-15,0.,16.));
#1172=CARTESIAN_POINT('Origin',(5.51980989911983E-15,0.,16.));
#1173=CARTESIAN_POINT('Origin',(4.65733960238236E-15,0.,13.5));
#1174=CARTESIAN_POINT('',(-15.,-1.83697019872103E-15,10.));
#1175=CARTESIAN_POINT('',(-15.,-1.83697019872103E-15,13.5));
#1176=CARTESIAN_POINT('Origin',(3.4498811869499E-15,0.,10.));
#1177=CARTESIAN_POINT('Origin',(10.,0.,17.));
#1178=CARTESIAN_POINT('Origin',(3.2773871276024E-15,0.,9.50000000000001));
#1179=CARTESIAN_POINT('',(19.,-2.32682891837997E-15,10.));
#1180=CARTESIAN_POINT('Origin',(3.44988118694989E-15,0.,10.));
#1181=CARTESIAN_POINT('',(20.,2.44929359829471E-15,9.00000000000001));
#1182=CARTESIAN_POINT('',(19.5,2.38806125833734E-15,9.50000000000001));
#1183=CARTESIAN_POINT('',(-20.,-2.44929359829471E-15,9.00000000000002));
#1184=CARTESIAN_POINT('Origin',(3.10489306825491E-15,0.,9.00000000000001));
#1185=CARTESIAN_POINT('Origin',(3.10489306825491E-15,0.,9.00000000000001));
#1186=CARTESIAN_POINT('Origin',(2.24242277151743E-15,0.,6.50000000000001));
#1187=CARTESIAN_POINT('',(-20.,-2.44929359829471E-15,3.00000000000001));
#1188=CARTESIAN_POINT('',(-20.,-2.44929359829471E-15,6.50000000000001));
#1189=CARTESIAN_POINT('Origin',(1.03496435608497E-15,0.,3.00000000000001));
#1190=CARTESIAN_POINT('Origin',(15.,0.,10.));
#1191=CARTESIAN_POINT('Origin',(8.62470296737475E-16,0.,2.50000000000001));
#1192=CARTESIAN_POINT('',(24.,-2.93915231795365E-15,3.));
#1193=CARTESIAN_POINT('Origin',(1.03496435608497E-15,0.,3.00000000000001));
#1194=CARTESIAN_POINT('',(25.,3.06161699786838E-15,2.00000000000001));
#1195=CARTESIAN_POINT('',(24.5,3.00038465791102E-15,2.50000000000001));
#1196=CARTESIAN_POINT('',(-25.,-3.06161699786838E-15,2.00000000000002));
#1197=CARTESIAN_POINT('Origin',(6.89976237389981E-16,0.,2.00000000000001));
#1198=CARTESIAN_POINT('Origin',(6.89976237389981E-16,0.,2.00000000000001));
#1199=CARTESIAN_POINT('Origin',(5.17482178042485E-16,0.,1.50000000000001));
#1200=CARTESIAN_POINT('',(-25.,-3.06161699786838E-15,3.60822483003176E-15));
#1201=CARTESIAN_POINT('',(-25.,-3.06161699786838E-15,1.50000000000001));
#1202=CARTESIAN_POINT('Origin',(1.97215226305253E-30,0.,8.88178419700125E-15));
#1203=CARTESIAN_POINT('Origin',(20.,0.,3.));
#1204=CARTESIAN_POINT('Origin',(25.,0.,0.));
#1205=UNCERTAINTY_MEASURE_WITH_UNIT(LENGTH_MEASURE(0.01),#1209,
'DISTANCE_ACCURACY_VALUE',
'Maximum model space distance between geometric entities at asserted c
onnectivities');
#1206=UNCERTAINTY_MEASURE_WITH_UNIT(LENGTH_MEASURE(0.01),#1209,
'DISTANCE_ACCURACY_VALUE',
'Maximum model space distance between geometric entities at asserted c
onnectivities');
#1207=(
GEOMETRIC_REPRESENTATION_CONTEXT(3)
GLOBAL_UNCERTAINTY_ASSIGNED_CONTEXT((#1205))
GLOBAL_UNIT_ASSIGNED_CONTEXT((#1209,#1211,#1212))
REPRESENTATION_CONTEXT('','3D')
);
#1208=(
GEOMETRIC_REPRESENTATION_CONTEXT(3)
GLOBAL_UNCERTAINTY_ASSIGNED_CONTEXT((#1206))
GLOBAL_UNIT_ASSIGNED_CONTEXT((#1209,#1211,#1212))
REPRESENTATION_CONTEXT('','3D')
);
#1209=(
LENGTH_UNIT()
NAMED_UNIT(*)
SI_UNIT(.MILLI.,.METRE.)
);
#1210=(
LENGTH_UNIT()
NAMED_UNIT(*)
SI_UNIT($,.METRE.)
);
#1211=(
NAMED_UNIT(*)
PLANE_ANGLE_UNIT()
SI_UNIT($,.RADIAN.)
);
#1212=(
NAMED_UNIT(*)
SI_UNIT($,.STERADIAN.)
SOLID_ANGLE_UNIT()
);
#1213=SHAPE_DEFINITION_REPRESENTATION(#1214,#1215);
#1214=PRODUCT_DEFINITION_SHAPE('',$,#1217);
#1215=SHAPE_REPRESENTATION('',(#734),#1207);
#1216=PRODUCT_DEFINITION_CONTEXT('part definition',#1221,'design');
#1217=PRODUCT_DEFINITION('Uo Zylinderstapel au\X\DFen',
'Uo Zylinderstapel au\X\DFen v6',#1218,#1216);
#1218=PRODUCT_DEFINITION_FORMATION('',$,#1223);
#1219=PRODUCT_RELATED_PRODUCT_CATEGORY('Uo Zylinderstapel au\X\DFen v6',
'Uo Zylinderstapel au\X\DFen v6',(#1223));
#1220=APPLICATION_PROTOCOL_DEFINITION('international standard',
'automotive_design',2009,#1221);
#1221=APPLICATION_CONTEXT(
'Core Data for Automotive Mechanical Design Process');
#1222=PRODUCT_CONTEXT('part definition',#1221,'mechanical');
#1223=PRODUCT('Uo Zylinderstapel au\X\DFen',
'Uo Zylinderstapel au\X\DFen v6',$,(#1222));
#1224=PRESENTATION_STYLE_ASSIGNMENT((#1225));
#1225=SURFACE_STYLE_USAGE(.BOTH.,#1226);
#1226=SURFACE_SIDE_STYLE('',(#1227));
#1227=SURFACE_STYLE_FILL_AREA(#1228);
#1228=FILL_AREA_STYLE('Stahl - satiniert',(#1229));
#1229=FILL_AREA_STYLE_COLOUR('Stahl - satiniert',#1230);
#1230=COLOUR_RGB('Stahl - satiniert',0.627450980392157,0.627450980392157,
0.627450980392157);
ENDSEC;
END-ISO-10303-21;
